<?xml version="1.0" standalone="no"?>
<!DOCTYPE svg PUBLIC "-//W3C//DTD SVG 20010904//EN"
 "http://www.w3.org/TR/2001/REC-SVG-20010904/DTD/svg10.dtd">
<svg version="1.0" xmlns="http://www.w3.org/2000/svg"
 width="800.000000pt" height="800.000000pt" viewBox="0 0 800.000000 800.000000"
 preserveAspectRatio="xMidYMid meet">

<g transform="translate(0.000000,800.000000) scale(0.100000,-0.100000)"
fill="#000000" stroke="none">
<path d="M5998 5955 c-3 -3 -1156 -313 -2563 -689 l-2558 -683 -53 -89 c-106
-178 -158 -330 -172 -506 l-8 -96 598 -939 c676 -1062 615 -983 759 -991 91
-5 122 1 150 29 16 16 460 148 1733 515 941 272 1718 499 1726 504 67 46 192
85 775 245 366 100 820 237 864 260 37 19 67 54 87 100 13 30 19 77 22 186 l4
147 -673 1006 c-371 553 -677 1006 -680 1006 -3 0 -8 -2 -11 -5z m104 -152
c46 -71 92 -140 102 -154 l17 -26 -141 -36 -141 -35 -14 22 c-41 64 -165 279
-165 287 0 4 19 14 43 20 134 37 174 47 193 48 16 1 40 -28 106 -126z m-372
50 c0 -3 -16 -35 -36 -71 l-36 -64 -34 48 c-19 26 -31 50 -28 53 6 7 103 39
122 40 6 1 12 -2 12 -6z m111 -161 l87 -147 -34 -94 c-19 -52 -36 -96 -37 -97
-1 -1 -44 78 -95 177 l-93 179 37 70 c21 38 40 67 43 64 3 -3 44 -71 92 -152z
m-225 66 c25 -35 66 -102 90 -150 l44 -87 -73 -21 c-39 -12 -100 -30 -135 -40
l-63 -18 -43 66 c-129 202 -127 198 -115 224 9 20 29 29 122 55 62 17 115 31
120 32 4 0 28 -27 53 -61z m-306 -17 c0 -5 -20 -44 -45 -86 -25 -42 -46 -80
-48 -85 -1 -5 43 -80 97 -168 82 -131 103 -158 118 -154 14 3 16 7 8 12 -9 6
-6 28 15 89 l27 81 66 19 c150 44 184 53 188 48 2 -2 -3 -23 -11 -47 -8 -24
-13 -45 -11 -48 3 -2 10 15 17 37 23 76 34 72 82 -26 40 -82 45 -88 68 -82 17
5 19 7 5 8 -10 1 -16 7 -14 14 3 6 17 48 33 92 16 44 31 84 35 88 8 9 218 64
265 69 29 3 35 -5 142 -162 100 -149 110 -166 95 -178 -16 -12 -15 -13 3 -10
15 2 34 -19 83 -90 35 -51 62 -96 59 -99 -3 -3 -97 -29 -209 -59 -112 -30
-211 -57 -220 -60 -12 -3 -33 17 -75 73 -79 105 -78 102 -51 113 20 9 20 10
-7 5 -31 -7 -59 -25 -37 -25 17 0 142 -169 142 -192 0 -30 -30 -128 -40 -128
-4 0 -22 23 -40 50 -18 28 -34 50 -37 50 -3 0 3 -12 13 -27 9 -16 27 -43 38
-60 12 -18 26 -33 31 -33 6 0 44 10 85 21 41 12 149 40 240 64 l165 42 3 49
c9 127 -17 156 382 -441 359 -537 365 -547 372 -608 8 -68 0 -217 -12 -217 -4
0 -34 30 -67 68 l-60 67 9 64 10 64 -91 131 c-49 72 -130 190 -178 262 -48 72
-97 137 -108 143 -15 9 -29 9 -47 2 -14 -5 -28 -8 -30 -5 -3 2 2 42 9 88 l14
83 -86 117 c-48 64 -89 116 -91 116 -3 0 -93 -22 -202 -49 -108 -26 -223 -54
-254 -60 -32 -7 -60 -17 -63 -22 -9 -13 -11 -14 262 55 231 58 253 62 267 47
39 -44 146 -197 143 -205 -3 -8 -711 -205 -738 -206 -9 0 -149 227 -149 240 0
24 -20 5 -64 -58 l-47 -69 36 -74 c39 -81 85 -159 85 -145 0 5 -25 56 -56 113
l-56 105 37 54 c21 30 41 57 45 59 5 3 40 -47 80 -112 79 -129 78 -120 29
-228 l-31 -69 -14 27 c-8 15 -17 27 -20 27 -2 0 3 -14 11 -30 9 -17 13 -34 11
-39 -3 -5 31 2 75 15 45 13 85 22 89 19 4 -2 31 -44 60 -92 30 -48 60 -98 67
-109 13 -21 11 -22 -88 -47 l-101 -25 -52 81 c-68 106 -78 125 -71 137 3 6 2
10 -3 10 -5 0 -14 -11 -20 -25 -9 -18 -8 -23 1 -20 7 3 37 -35 70 -87 l59 -92
-22 -78 c-13 -43 -26 -75 -30 -73 -4 3 -36 55 -70 117 -47 86 -60 117 -55 137
6 25 6 25 -8 6 -16 -21 -18 -18 94 -215 l37 -65 44 2 43 1 -32 -11 c-20 -8
-44 -29 -62 -57 -16 -25 -43 -60 -59 -79 l-28 -34 -33 45 c-26 37 -37 44 -54
40 -22 -7 -22 -7 1 -10 23 -4 152 -162 152 -188 0 -13 -208 -85 -223 -77 -4 3
-37 48 -73 101 l-64 97 27 12 c16 7 23 12 16 13 -26 1 -46 -16 -103 -86 l-59
-75 -23 36 c-13 19 -30 37 -38 40 -9 4 -6 -3 6 -17 36 -39 137 -198 131 -204
-5 -5 -1986 -575 -2082 -600 -21 -5 -17 -11 -103 147 l-42 77 192 53 c106 30
182 55 168 57 -14 1 -99 -20 -189 -47 -175 -53 -193 -64 -273 -164 -31 -38
-31 -39 -14 -68 9 -16 15 -29 12 -29 -11 0 -126 184 -119 191 5 3 55 17 112
30 57 12 109 28 116 35 7 7 21 46 30 86 l18 72 36 -72 c20 -41 42 -72 50 -72
8 0 56 12 106 26 l92 26 12 48 c18 70 34 79 63 38 15 -23 29 -32 42 -30 14 3
15 6 6 12 -10 6 -9 19 5 61 10 30 21 58 25 62 4 5 49 19 100 32 l92 23 -6 -36
c-5 -36 -3 -33 16 17 8 21 11 22 22 10 8 -8 22 -30 33 -49 16 -31 22 -35 43
-29 18 5 20 7 6 8 -16 1 -17 6 -12 39 13 69 12 69 101 91 46 11 89 21 96 21 7
0 9 -15 5 -42 -5 -42 -5 -42 8 7 7 28 12 51 11 53 -2 2 -47 -8 -101 -22 -54
-14 -101 -23 -105 -21 -4 3 -35 53 -69 111 -48 83 -59 109 -48 115 7 5 9 9 3
8 -5 0 -26 -14 -45 -31 -26 -23 -28 -27 -8 -15 31 19 26 25 101 -104 l56 -96
-13 -49 -12 -49 -26 40 c-14 22 -49 82 -79 133 -30 50 -58 92 -63 92 -6 0 -21
11 -35 24 -20 18 -31 22 -46 15 -18 -8 -18 -8 4 -6 21 2 34 -13 92 -108 37
-60 66 -111 64 -113 -7 -8 -189 -51 -196 -46 -8 5 -129 200 -129 208 0 3 18
11 40 17 22 7 38 14 36 16 -6 7 -86 -19 -86 -28 0 -4 -3 -15 -7 -25 -4 -11 -3
-15 4 -11 7 4 37 -34 73 -94 66 -107 67 -110 34 -188 l-15 -35 -19 29 c-11 17
-20 38 -20 47 0 10 -20 50 -44 90 -25 41 -41 77 -36 83 4 5 11 21 14 35 6 22
5 22 -10 -5 l-17 -29 -16 22 c-9 13 -25 33 -36 46 -11 12 -15 15 -9 6 33 -46
134 -223 130 -227 -8 -8 -198 -54 -203 -49 -3 3 -34 53 -68 113 l-63 108 26
12 c15 7 20 12 11 13 -35 1 -104 -92 -89 -120 5 -9 16 -36 24 -61 l15 -43 -24
29 c-32 39 -32 25 0 -25 14 -22 25 -43 25 -48 0 -9 -157 -62 -186 -62 -17 0
-31 23 -72 111 -29 61 -49 115 -46 120 3 5 12 9 21 9 9 0 14 2 11 5 -16 16
-63 -13 -107 -65 -36 -44 -51 -56 -60 -47 -23 23 -10 -6 40 -84 28 -45 48 -83
45 -86 -10 -10 -870 -251 -881 -247 -6 3 -39 53 -73 112 -56 98 -60 108 -44
120 16 13 16 14 0 10 -9 -1 -46 -41 -81 -87 l-65 -85 34 -68 c19 -37 37 -68
39 -68 3 0 -8 27 -25 60 -16 33 -30 66 -30 74 0 14 85 129 99 134 4 1 36 -47
70 -107 l61 -110 -47 -96 c-26 -52 -50 -95 -53 -95 -4 0 -19 27 -35 60 -16 33
-30 58 -32 56 -5 -4 43 -103 59 -122 11 -14 50 -6 41 8 -3 6 13 49 37 97 l42
86 444 126 c493 140 454 136 433 40 l-11 -51 -116 -36 c-346 -106 -805 -257
-755 -248 18 3 33 3 33 -1 0 -3 -23 -40 -51 -82 l-51 -76 33 -63 c19 -34 35
-61 37 -59 2 2 -11 30 -28 63 l-33 59 52 76 c28 43 55 77 59 77 4 0 31 -46 61
-102 l54 -103 -38 -97 c-21 -54 -41 -98 -46 -98 -5 0 -20 23 -34 50 -14 28
-28 50 -31 50 -10 0 60 -122 73 -127 7 -3 25 0 40 6 l28 11 -28 -5 c-15 -3
-27 -1 -27 4 0 5 15 49 34 98 l34 88 124 33 c67 18 131 37 140 42 10 6 20 10
22 10 3 0 26 -36 53 -80 49 -82 62 -91 108 -69 15 7 12 7 -13 3 -32 -6 -33 -4
-27 16 4 12 15 51 26 87 10 36 20 67 21 68 6 6 496 155 509 155 8 0 20 4 28 9
11 7 8 19 -17 65 -18 31 -32 61 -32 68 0 12 100 122 105 116 13 -14 115 -210
115 -220 0 -18 -63 -168 -71 -168 -3 0 -21 27 -38 60 -18 33 -34 60 -37 60 -3
0 11 -31 32 -69 l37 -69 36 10 c41 12 55 21 26 18 -11 -1 -23 -2 -27 -1 -4 0
9 36 27 79 l33 77 1051 301 c987 283 1051 300 1052 280 1 -14 3 -12 8 9 3 17
11 30 16 29 6 0 28 -26 49 -57 l39 -57 23 63 c44 124 33 113 144 147 56 17
108 29 115 26 7 -2 16 3 20 12 6 15 9 14 26 -7 33 -40 21 -14 -31 69 -27 44
-50 83 -50 86 0 11 80 114 88 114 4 0 31 -40 60 -88 l52 -88 -26 -80 c-15 -43
-28 -81 -31 -83 -2 -3 -10 4 -19 15 -12 14 -11 12 2 -12 12 -23 22 -30 36 -26
12 3 15 7 9 12 -8 4 -3 29 14 80 14 40 27 75 29 77 2 2 49 17 105 32 l101 28
1 -31 c1 -20 3 -24 6 -11 11 49 14 51 34 26 31 -38 22 -15 -21 52 -22 34 -40
56 -40 48 0 -8 -6 -11 -16 -7 -17 6 -12 -6 14 -37 9 -10 12 -21 6 -26 -9 -8
-161 -51 -181 -51 -15 0 -126 182 -116 190 12 11 134 50 154 50 10 0 34 -22
54 -50 20 -27 39 -50 41 -50 6 0 -24 47 -58 91 -25 33 -26 37 -10 41 11 4 25
31 41 87 13 45 28 78 32 74 4 -4 26 -36 48 -70 l40 -61 -45 -58 c-24 -31 -42
-59 -39 -62 3 -3 6 -3 8 -1 2 2 20 28 41 57 21 28 41 52 46 52 12 0 120 -180
120 -201 0 -10 -8 -40 -18 -66 -11 -26 -22 -57 -26 -68 -7 -19 -8 -19 -27 5
l-21 25 17 -31 c14 -24 22 -30 42 -26 17 3 21 7 12 12 -9 6 -7 23 11 72 13 34
28 68 34 74 10 10 183 54 211 54 6 0 10 -15 9 -32 -1 -22 0 -25 3 -8 8 47 21
43 60 -17 l38 -60 35 14 c30 11 31 12 6 8 -21 -5 -27 -3 -24 7 3 7 16 45 28
84 l23 72 155 42 c84 23 156 39 159 36 3 -2 0 -37 -7 -75 -10 -63 -15 -72 -36
-77 -14 -4 -23 -8 -21 -11 3 -2 16 -1 31 3 19 4 26 13 26 29 0 13 4 26 9 29
13 8 114 -111 105 -125 -19 -32 -175 -82 -949 -308 -505 -147 -746 -225 -791
-257 -15 -10 -32 -22 -38 -27 -6 -4 -753 -216 -1661 -472 -907 -256 -1657
-469 -1665 -475 -60 -40 -96 -52 -140 -48 -65 7 -100 35 -167 136 -31 48 -300
530 -596 1072 l-540 985 71 141 c39 77 79 147 89 156 23 20 215 70 226 59 5
-5 -1 -27 -12 -50 -12 -22 -19 -41 -16 -41 2 0 13 16 23 36 l19 37 30 -54 c17
-30 55 -101 86 -159 l55 -105 -41 -98 c-48 -112 -40 -114 -113 21 -25 45 -47
82 -50 82 -6 0 2 -15 67 -131 46 -81 51 -86 76 -81 20 4 23 7 11 11 -14 5 -12
17 21 95 21 49 45 92 52 96 14 8 229 70 242 70 4 0 7 -10 8 -22 0 -16 5 -10
13 17 l12 40 32 -49 c18 -28 32 -54 32 -60 0 -5 3 -7 6 -3 3 3 -33 74 -80 156
-47 83 -86 153 -86 156 0 10 74 135 80 135 7 0 16 -16 105 -175 l77 -136 -32
-80 c-18 -43 -36 -76 -41 -73 -5 3 -9 1 -9 -5 0 -19 17 -20 61 -6 43 14 43 14
7 8 l-37 -5 31 78 c17 44 36 84 42 90 9 9 208 64 231 64 4 0 4 -15 1 -32 -6
-31 -5 -30 9 6 8 22 14 41 12 42 -1 2 -63 -12 -137 -31 -74 -19 -135 -33 -136
-32 -21 22 -174 311 -168 317 13 12 243 72 257 67 7 -2 50 -73 97 -156 47 -83
86 -147 88 -142 4 11 -10 37 -103 196 -35 60 -62 111 -61 113 8 8 149 42 154
37 3 -3 -13 -32 -36 -65 l-41 -60 50 -102 c52 -107 130 -252 140 -262 3 -3 23
1 45 9 36 14 37 15 6 9 -17 -3 -32 -2 -32 3 0 5 11 40 23 79 l24 69 119 32
c142 38 132 37 137 16 2 -11 7 -4 11 17 6 31 2 46 -33 105 -22 39 -41 66 -41
62 0 -5 16 -36 35 -69 20 -33 34 -65 32 -71 -2 -6 -58 -25 -125 -43 l-122 -32
-24 41 c-98 173 -144 263 -137 270 12 12 224 68 237 63 6 -2 28 -34 48 -70 20
-36 39 -66 42 -66 6 0 -51 105 -69 128 -5 7 -7 16 -3 20 11 10 168 52 178 46
4 -3 -12 -35 -36 -71 l-45 -66 89 -178 c87 -173 110 -209 110 -172 0 10 15 52
32 94 l33 77 111 31 c61 17 116 31 122 31 11 0 -32 -144 -51 -167 -6 -9 -6
-13 1 -13 14 0 82 203 72 215 -4 5 -33 57 -64 115 -31 58 -56 101 -56 96 0 -5
25 -56 56 -114 40 -74 52 -107 44 -112 -7 -4 -59 -20 -117 -35 -89 -24 -106
-26 -117 -14 -22 25 -168 280 -163 285 3 3 60 20 127 38 l121 33 15 -28 c8
-16 17 -29 20 -29 2 0 -2 14 -11 30 -15 29 -15 31 7 39 45 17 128 35 133 29 4
-3 -8 -31 -25 -62 -18 -31 -30 -56 -27 -56 3 0 18 22 33 50 15 27 30 47 35 45
4 -3 44 -69 89 -146 l82 -140 -28 -76 c-23 -64 -30 -73 -38 -59 -24 39 -36 49
-20 16 32 -67 35 -66 65 22 16 45 33 86 37 90 5 5 57 22 117 39 83 24 109 28
115 19 6 -9 9 -7 12 6 4 20 -25 89 -100 237 -24 49 -40 92 -36 97 11 9 143 44
148 39 2 -2 -16 -39 -41 -81 -50 -87 -51 -76 23 -183 48 -70 43 -50 -10 36
l-43 71 40 70 c28 48 43 66 51 58 6 -6 45 -70 87 -142 l76 -132 -25 -75 c-13
-42 -28 -80 -32 -84 -4 -4 -26 24 -49 62 -23 39 -44 71 -48 71 -3 0 1 -10 9
-22 8 -13 30 -49 49 -80 35 -60 50 -68 94 -47 15 7 12 8 -12 3 l-32 -5 28 83
28 83 123 34 c90 24 124 30 130 21 5 -8 9 -5 13 9 3 12 2 21 -1 21 -4 0 -63
-16 -132 -35 -96 -26 -128 -31 -136 -22 -16 17 -164 277 -164 287 0 5 24 16
53 24 186 52 196 54 205 43 5 -7 23 -38 41 -69 18 -32 35 -58 37 -58 5 0 -51
105 -68 127 -12 15 -5 18 82 42 85 24 110 26 110 10 0 -7 -19 -41 -41 -77
l-42 -66 34 -62 c18 -35 35 -61 37 -59 2 2 -11 30 -29 62 l-32 58 43 69 c52
82 39 91 141 -103 l67 -126 -30 -77 c-16 -43 -33 -78 -38 -78 -5 0 -29 38 -55
85 -25 47 -48 85 -51 85 -5 0 61 -124 95 -180 10 -17 23 -24 35 -22 14 3 15 6
6 12 -10 6 -6 26 17 86 l30 79 119 37 c65 21 120 35 123 33 2 -3 -6 -39 -19
-81 -21 -65 -29 -79 -55 -91 l-30 -14 30 6 c16 4 31 8 32 9 1 1 18 46 36 100
l35 98 -34 51 c-19 28 -34 56 -34 61 0 5 -3 7 -6 3 -4 -3 8 -29 26 -58 17 -28
28 -55 23 -59 -14 -14 -238 -79 -244 -72 -19 20 -160 295 -157 304 4 10 193
67 225 68 6 0 32 -36 58 -80 26 -44 49 -80 52 -80 5 0 7 -5 -47 88 -25 43 -39
77 -34 82 8 7 160 50 178 50 15 0 2 -30 -39 -94 l-44 -70 22 -37 c12 -21 23
-36 26 -34 2 3 -4 16 -13 29 -9 14 -16 32 -16 41 0 23 81 148 90 138 4 -4 42
-68 84 -142 l77 -134 -26 -71 c-37 -102 -41 -106 -66 -76 l-20 25 15 -32 c21
-43 27 -45 72 -28 37 14 37 15 7 9 -18 -3 -33 -4 -33 -2 0 2 13 36 28 77 l28
73 123 40 c90 29 126 37 131 28 5 -8 9 -5 12 8 4 13 -25 69 -87 168 -51 82
-89 153 -86 157 12 12 181 55 186 46 3 -4 -15 -42 -39 -85 l-44 -78 21 -37
c12 -21 23 -36 26 -34 2 3 -4 16 -13 29 -9 14 -16 32 -16 40 0 23 72 149 80
139 24 -29 153 -271 152 -286 -1 -19 -42 -149 -49 -157 -2 -3 -13 6 -24 20
l-20 25 15 -31 c8 -17 22 -36 30 -43 14 -12 16 -10 16 10 0 13 12 59 26 101
l26 78 112 35 c62 19 116 35 120 35 4 0 5 -15 2 -32 -5 -29 -5 -30 4 -9 20 46
13 67 -73 208 -61 101 -82 145 -74 150 15 10 156 51 180 52 9 1 17 -3 17 -8z
m-132 -196 c46 -76 79 -141 75 -145 -4 -5 -59 -24 -121 -43 l-112 -35 -39 67
c-21 36 -59 102 -84 146 -25 44 -42 84 -38 88 11 11 212 67 226 63 5 -1 47
-65 93 -141z m211 16 l79 -124 -25 -76 c-14 -42 -28 -79 -32 -83 -7 -8 -174
256 -179 282 -3 19 59 131 70 128 5 -2 44 -59 87 -127z m-660 -150 c45 -73 79
-137 74 -141 -4 -4 -57 -24 -118 -44 -86 -28 -112 -33 -121 -23 -14 15 -164
276 -167 290 -3 17 226 77 239 63 6 -6 48 -71 93 -145z m-1413 -362 c41 -84
72 -155 67 -159 -10 -10 -194 -60 -221 -60 -15 0 -39 34 -101 141 -44 77 -81
144 -81 148 0 4 57 24 128 44 70 19 128 36 129 36 2 1 37 -67 79 -150z m3262
-71 c-4 -34 -11 -64 -14 -67 -8 -8 -438 -121 -442 -116 -5 5 19 110 28 125 6
10 385 118 421 119 14 1 15 -7 7 -61z m-3964 -129 c42 -72 76 -139 76 -148 0
-10 -15 -53 -34 -96 l-34 -78 -81 161 c-45 89 -81 169 -81 177 0 17 61 115 71
115 4 0 41 -59 83 -131z m-459 -132 l76 -138 -28 -84 c-15 -47 -30 -85 -33
-85 -3 0 -43 76 -90 169 l-84 170 38 56 c21 31 39 55 41 53 2 -2 38 -65 80
-141z m-555 33 c0 -11 -56 -106 -77 -132 -13 -14 -12 -22 7 -57 11 -23 19 -41
16 -41 -5 0 -106 168 -109 182 -1 7 31 21 73 34 91 27 90 26 90 14z m-92 -201
c51 -89 90 -165 85 -169 -4 -4 -63 -23 -131 -43 l-122 -34 -39 71 c-112 208
-132 248 -128 259 3 9 192 70 237 76 3 1 47 -72 98 -160z m5257 24 c-13 -91
-13 -92 -69 -108 -348 -99 -730 -204 -734 -201 -2 2 12 39 31 83 l34 78 359
97 c197 53 365 97 373 97 10 1 12 -10 6 -46z m-5190 -93 c9 -16 13 -30 11 -30
-3 0 -12 14 -21 30 -9 17 -13 30 -11 30 3 0 12 -13 21 -30z m5453 -274 c100
-145 182 -268 182 -274 0 -11 -33 -21 -200 -66 -152 -39 -130 -53 -278 173
-70 108 -137 210 -147 226 -10 17 -26 35 -34 42 -9 7 -12 13 -7 13 6 0 1 7
-10 16 -10 8 -12 13 -4 9 8 -4 3 3 -12 15 -16 12 -28 27 -28 33 0 7 5 4 11 -5
7 -14 14 -15 27 -7 25 15 295 96 307 92 6 -2 92 -122 193 -267z m-5418 214 c6
-11 8 -20 6 -20 -3 0 -10 9 -16 20 -6 11 -8 20 -6 20 3 0 10 -9 16 -20z m4933
-150 l68 -99 -38 -10 c-21 -6 -69 -19 -106 -30 l-68 -19 -23 32 c-45 60 -115
170 -112 174 7 7 171 51 191 51 14 0 39 -27 88 -99z m-334 -6 c-24 -24 -48
-44 -55 -44 -12 0 -44 42 -44 58 0 13 134 50 139 39 2 -5 -16 -29 -40 -53z
m119 -66 l61 -93 -25 -84 c-14 -45 -29 -79 -34 -75 -12 14 -160 255 -160 262
0 11 74 82 86 82 6 0 39 -42 72 -92z m268 -127 c-8 -35 -17 -65 -19 -68 -8 -8
-216 -71 -220 -66 -5 4 39 152 47 160 2 2 48 17 102 32 65 17 100 23 102 16 1
-6 -4 -39 -12 -74z m158 -82 l114 -170 -26 -80 c-15 -43 -29 -79 -32 -79 -3 1
-52 78 -110 173 -102 168 -105 174 -97 212 17 75 28 115 32 115 3 0 56 -77
119 -171z m-549 -20 c-16 -52 -24 -64 -49 -74 -45 -18 -166 -49 -171 -44 -2 3
5 35 16 71 l19 66 98 24 c53 14 99 23 101 21 2 -1 -4 -31 -14 -64z m453 -88
c35 -57 61 -105 58 -108 -6 -6 -202 -53 -221 -53 -7 0 -34 34 -59 75 -25 42
-53 86 -62 100 l-15 24 108 34 c59 19 112 34 118 33 5 -1 38 -49 73 -105z
m-1028 -321 c33 -49 60 -97 60 -107 0 -29 -52 -155 -60 -146 -25 27 -150 225
-150 236 0 13 76 107 86 107 2 0 31 -40 64 -90z m-2236 -214 l66 -115 -18 -58
-19 -58 -66 132 c-37 73 -67 140 -67 148 0 14 28 65 35 65 1 0 32 -51 69 -114z
m-305 -259 c-21 -55 -24 -58 -36 -41 -24 33 -133 243 -133 256 0 7 17 31 37
53 l37 40 58 -125 59 -124 -22 -59z m559 123 l-23 -64 -92 -27 c-51 -15 -93
-22 -93 -17 0 5 7 38 16 73 l16 63 96 24 c54 14 98 21 100 18 1 -4 -8 -35 -20
-70z m-328 -66 c-11 -37 -21 -69 -24 -71 -7 -8 -209 -54 -213 -49 -2 2 7 30
20 62 l23 59 89 32 c130 46 128 47 105 -33z m-279 -107 c14 -34 7 -43 -44 -52
-29 -6 -36 -4 -33 6 3 8 10 40 16 73 l12 59 19 -29 c10 -16 24 -42 30 -57z
m95 -169 c40 -62 70 -116 66 -119 -4 -4 -116 -41 -250 -82 l-242 -74 -29 51
c-77 138 -105 195 -98 202 8 9 470 143 476 138 1 -1 36 -54 77 -116z m-634
-100 c-21 -29 -43 -61 -49 -71 -9 -17 -14 -13 -43 32 -18 29 -31 53 -29 55 13
11 155 52 157 45 2 -4 -14 -32 -36 -61z m128 -57 l62 -114 -23 -81 c-12 -44
-25 -87 -29 -94 -7 -14 -170 248 -170 272 0 12 90 139 95 134 2 -2 31 -54 65
-117z m-194 -42 c36 -56 63 -106 61 -112 -2 -6 -56 -25 -120 -43 l-117 -31
-55 102 c-30 56 -55 106 -55 112 0 9 179 71 208 73 7 0 42 -45 78 -101z"/>
<path d="M6202 5565 c0 -16 2 -22 5 -12 2 9 2 23 0 30 -3 6 -5 -1 -5 -18z"/>
<path d="M6192 5495 c0 -16 2 -22 5 -12 2 9 2 23 0 30 -3 6 -5 -1 -5 -18z"/>
<path d="M6178 5435 c-3 -14 -1 -25 3 -25 5 0 9 11 9 25 0 14 -2 25 -4 25 -2
0 -6 -11 -8 -25z"/>
<path d="M6095 5395 c-39 -14 -40 -14 -5 -8 41 7 82 22 60 22 -8 0 -33 -7 -55
-14z"/>
<path d="M6028 5373 c7 -3 16 -2 19 1 4 3 -2 6 -13 5 -11 0 -14 -3 -6 -6z"/>
<path d="M5988 5363 c7 -3 16 -2 19 1 4 3 -2 6 -13 5 -11 0 -14 -3 -6 -6z"/>
<path d="M4836 5313 c50 -87 64 -108 64 -100 0 11 -81 147 -87 147 -3 0 8 -21
23 -47z"/>
<path d="M5690 5350 c0 -6 -15 -18 -32 -26 l-33 -15 30 6 c28 6 44 20 45 38 0
4 -2 7 -5 7 -3 0 -5 -5 -5 -10z"/>
<path d="M5925 5350 c-13 -5 -14 -9 -5 -9 8 0 24 4 35 9 13 5 14 9 5 9 -8 0
-24 -4 -35 -9z"/>
<path d="M5236 5284 c-4 -14 -5 -28 -3 -31 3 -2 8 8 11 23 4 14 5 28 3 31 -3
2 -8 -8 -11 -23z"/>
<path d="M5560 5295 c-19 -7 -28 -13 -20 -13 8 0 31 6 50 13 19 7 28 13 20 13
-8 0 -31 -6 -50 -13z"/>
<path d="M5475 5270 c-13 -5 -14 -9 -5 -9 8 0 24 4 35 9 13 5 14 9 5 9 -8 0
-24 -4 -35 -9z"/>
<path d="M6375 5240 c-13 -5 -14 -9 -5 -9 8 0 24 4 35 9 13 5 14 9 5 9 -8 0
-24 -4 -35 -9z"/>
<path d="M4366 5193 c50 -87 64 -108 64 -100 0 11 -81 147 -87 147 -3 0 8 -21
23 -47z"/>
<path d="M5215 5218 c-6 -12 -26 -27 -45 -34 -19 -7 -30 -13 -24 -13 26 -2 74
22 80 41 8 27 0 32 -11 6z"/>
<path d="M5510 5211 c0 -6 4 -13 10 -16 6 -3 7 1 4 9 -7 18 -14 21 -14 7z"/>
<path d="M6275 5210 c-13 -5 -14 -9 -5 -9 8 0 24 4 35 9 13 5 14 9 5 9 -8 0
-24 -4 -35 -9z"/>
<path d="M5468 5203 c6 -2 18 -2 25 0 6 3 1 5 -13 5 -14 0 -19 -2 -12 -5z"/>
<path d="M5418 5193 c6 -2 18 -2 25 0 6 3 1 5 -13 5 -14 0 -19 -2 -12 -5z"/>
<path d="M6190 5185 c-19 -7 -28 -13 -20 -13 8 0 31 6 50 13 19 7 28 13 20 13
-8 0 -31 -6 -50 -13z"/>
<path d="M4780 5144 c-10 -36 -20 -50 -44 -61 -25 -11 -26 -13 -6 -9 14 3 28
6 32 6 8 0 42 100 35 106 -2 2 -10 -16 -17 -42z"/>
<path d="M5340 5180 c-20 -6 -21 -8 -5 -8 11 0 31 4 45 8 20 6 21 8 5 8 -11 0
-31 -4 -45 -8z"/>
<path d="M5238 5088 c-24 -46 -44 -86 -46 -89 -3 -6 64 -123 171 -299 40 -67
56 -85 71 -82 14 3 16 6 6 12 -10 6 -6 24 18 81 l30 74 93 32 c121 41 122 41
115 1 -4 -28 -3 -27 8 7 15 46 11 75 -8 51 -17 -22 -204 -76 -214 -62 -15 19
-202 334 -202 339 0 3 8 8 18 10 16 4 16 5 0 6 -13 1 -31 -24 -60 -81z m132
-113 c46 -77 89 -149 96 -160 11 -17 8 -32 -20 -99 -33 -79 -33 -79 -49 -55
-39 61 -187 330 -187 339 0 22 62 132 69 124 5 -5 46 -72 91 -149z"/>
<path d="M5540 5164 c0 -6 7 -19 16 -30 14 -18 14 -18 3 6 -14 31 -19 36 -19
24z"/>
<path d="M6090 5155 c-19 -7 -28 -13 -20 -13 8 0 31 6 50 13 19 7 28 13 20 13
-8 0 -31 -6 -50 -13z"/>
<path d="M3790 5157 c0 -11 73 -137 77 -133 2 2 -14 34 -36 72 -23 38 -41 65
-41 61z"/>
<path d="M5040 5145 c-19 -7 -28 -13 -20 -13 8 0 31 6 50 13 19 7 28 13 20 13
-8 0 -31 -6 -50 -13z"/>
<path d="M5090 5108 c0 -4 45 -84 101 -179 55 -95 96 -175 92 -179 -8 -7 -165
-51 -190 -54 -15 -1 -206 331 -198 345 4 5 0 9 -7 9 -18 0 -118 -102 -118
-120 0 -15 101 -198 135 -245 12 -16 37 -55 54 -85 18 -30 31 -47 28 -38 -3 9
-51 96 -106 192 -56 96 -101 179 -101 184 0 12 89 97 95 90 14 -13 198 -344
198 -355 0 -20 -55 -143 -64 -143 -5 0 -6 -6 -3 -13 6 -17 84 -7 129 17 38 20
27 20 -42 0 -30 -9 -56 -14 -59 -12 -3 4 53 147 62 157 2 2 50 16 107 30 103
27 103 27 96 54 -8 28 -56 113 -124 217 -23 36 -52 81 -63 100 -12 19 -22 32
-22 28z"/>
<path d="M5035 5090 c-13 -5 -14 -9 -5 -9 8 0 24 4 35 9 13 5 14 9 5 9 -8 0
-24 -4 -35 -9z"/>
<path d="M5580 5094 c0 -6 7 -19 16 -30 14 -18 14 -18 3 6 -14 31 -19 36 -19
24z"/>
<path d="M4988 5073 c7 -3 16 -2 19 1 4 3 -2 6 -13 5 -11 0 -14 -3 -6 -6z"/>
<path d="M4655 5060 c-13 -5 -14 -9 -5 -9 8 0 24 4 35 9 13 5 14 9 5 9 -8 0
-24 -4 -35 -9z"/>
<path d="M4925 5060 c-13 -5 -14 -9 -5 -9 8 0 24 4 35 9 13 5 14 9 5 9 -8 0
-24 -4 -35 -9z"/>
<path d="M5936 5053 c-6 -14 -5 -15 5 -6 7 7 10 15 7 18 -3 3 -9 -2 -12 -12z"/>
<path d="M4585 5040 c-13 -5 -14 -9 -5 -9 8 0 24 4 35 9 13 5 14 9 5 9 -8 0
-24 -4 -35 -9z"/>
<path d="M5620 5024 c0 -6 7 -19 16 -30 14 -18 14 -18 3 6 -14 31 -19 36 -19
24z"/>
<path d="M4665 5009 c-19 -7 -19 -8 1 -8 17 -1 43 -39 125 -181 57 -100 105
-176 107 -170 4 10 -117 227 -150 270 -11 14 -30 41 -41 61 -18 30 -26 35 -42
28z"/>
<path d="M5930 5017 c0 -4 16 -31 35 -60 19 -28 35 -48 35 -44 0 4 -16 31 -35
60 -19 28 -35 48 -35 44z"/>
<path d="M2900 4988 c0 -4 29 -63 65 -130 36 -68 65 -120 65 -115 0 9 -53 115
-99 197 -17 30 -31 52 -31 48z"/>
<path d="M4513 4964 c-29 -11 -56 -32 -89 -72 l-47 -57 47 49 c26 26 49 46 52
44 2 -3 48 -85 103 -183 l98 -178 -30 -68 c-16 -38 -34 -66 -38 -63 -15 9 -10
-13 6 -26 12 -10 15 -10 15 3 0 8 13 44 29 80 29 63 31 65 83 80 100 29 140
38 144 34 2 -2 -3 -23 -11 -47 -8 -24 -13 -45 -11 -47 2 -2 13 23 24 56 11 34
18 61 14 61 -4 0 -53 -13 -109 -29 l-103 -28 -19 31 c-41 69 -181 327 -181
334 0 5 21 16 48 24 26 9 40 16 32 16 -8 0 -34 -6 -57 -14z"/>
<path d="M5660 4954 c0 -6 7 -19 16 -30 14 -18 14 -18 3 6 -14 31 -19 36 -19
24z"/>
<path d="M3831 4888 c-7 -24 -18 -49 -23 -55 -7 -9 -7 -13 0 -13 11 0 47 98
40 106 -3 2 -10 -15 -17 -38z"/>
<path d="M4160 4915 c-19 -7 -28 -13 -20 -13 8 0 31 6 50 13 19 7 28 13 20 13
-8 0 -31 -6 -50 -13z"/>
<path d="M4075 4890 c-13 -5 -14 -9 -5 -9 8 0 24 4 35 9 13 5 14 9 5 9 -8 0
-24 -4 -35 -9z"/>
<path d="M4275 4889 c-19 -7 -19 -8 1 -8 17 -1 42 -37 120 -173 55 -95 99
-177 99 -182 0 -5 -49 -24 -108 -42 l-108 -31 -13 21 c-45 70 -196 339 -194
342 2 2 15 8 28 14 24 10 23 10 -5 5 -35 -7 -70 -35 -45 -35 9 -1 57 -75 113
-172 l98 -172 -27 -66 c-15 -36 -31 -69 -35 -74 -4 -5 -28 31 -53 80 -25 49
-45 83 -45 76 -1 -12 71 -153 92 -180 7 -9 19 9 41 65 l32 78 113 33 c62 18
115 32 117 29 2 -2 -3 -23 -11 -47 -8 -24 -13 -45 -11 -47 2 -2 14 24 25 60
l21 64 -71 124 c-40 68 -81 135 -92 149 -10 14 -29 41 -40 61 -18 30 -26 35
-42 28z"/>
<path d="M4190 4865 c-19 -7 -28 -13 -20 -13 8 0 31 6 50 13 19 7 28 13 20 13
-8 0 -31 -6 -50 -13z"/>
<path d="M3745 4810 c-13 -5 -14 -9 -5 -9 8 0 24 4 35 9 13 5 14 9 5 9 -8 0
-24 -4 -35 -9z"/>
<path d="M4380 4810 c0 -17 146 -277 160 -285 18 -11 10 6 -71 148 -92 159
-89 155 -89 137z"/>
<path d="M3361 4768 c-7 -24 -18 -49 -23 -55 -7 -9 -7 -13 0 -13 11 0 47 98
40 106 -3 2 -10 -15 -17 -38z"/>
<path d="M3778 4775 c-106 -36 -151 -61 -124 -67 9 -1 65 -86 125 -187 l109
-185 -28 -64 c-15 -35 -31 -64 -35 -65 -9 -2 -254 440 -254 459 -1 6 13 17 29
24 17 7 29 14 27 17 -2 2 -25 -5 -50 -16 -43 -19 -47 -19 -56 -3 -6 9 -11 14
-11 10 0 -4 47 -93 105 -198 58 -105 105 -195 105 -200 0 -16 -197 -67 -210
-54 -21 23 -200 376 -195 384 15 25 -22 6 -72 -37 -42 -36 -53 -51 -49 -67 5
-22 6 -23 -46 47 -12 16 -16 17 -53 2 -23 -9 -29 -13 -13 -10 14 3 32 7 40 10
10 4 45 -50 116 -181 57 -103 101 -191 99 -197 -3 -10 -155 -56 -189 -57 -12
0 -45 54 -112 184 -53 101 -96 186 -96 190 0 4 10 11 23 17 19 8 19 9 -7 4
-30 -6 -136 -90 -136 -107 0 -18 -27 11 -40 43 -7 16 -15 28 -17 25 -3 -2 41
-92 96 -199 56 -108 98 -197 94 -200 -26 -15 -204 -50 -212 -41 -10 10 -201
370 -201 378 0 2 8 7 18 9 13 4 13 5 -4 6 -21 1 -134 -83 -134 -99 0 -4 21 12
48 36 26 24 49 44 52 44 3 0 51 -86 106 -192 l101 -191 -26 -79 c-14 -43 -28
-78 -32 -78 -3 0 -59 99 -125 219 -65 121 -120 218 -122 216 -2 -2 10 -30 26
-62 63 -121 83 -163 79 -163 -3 0 -17 20 -31 44 -14 24 -32 46 -41 50 -12 4
-11 -1 4 -22 31 -43 121 -196 117 -199 -7 -8 -381 -81 -388 -77 -4 3 -8 -5 -8
-18 0 -13 3 -18 8 -12 10 17 394 95 408 83 6 -5 13 -6 17 -3 3 3 17 -15 32
-40 15 -25 30 -46 33 -46 4 0 18 37 31 81 28 91 24 88 148 119 107 26 106 26
99 -12 l-6 -33 13 35 c8 19 18 35 23 34 5 0 25 -30 44 -65 32 -60 37 -65 60
-58 16 4 19 7 8 8 -10 1 -18 5 -18 9 0 15 40 126 48 134 13 13 194 59 208 54
7 -3 14 5 17 16 3 11 10 17 16 13 20 -12 12 7 -74 171 -47 90 -85 170 -85 177
0 13 78 83 85 76 2 -2 48 -89 103 -193 l99 -189 -26 -79 -25 -78 -23 45 c-13
25 -26 45 -28 45 -3 0 9 -28 26 -62 l31 -62 25 80 c14 43 28 83 33 87 7 8 176
57 197 57 7 0 10 -8 8 -17 -3 -10 2 -2 11 17 16 35 16 35 32 14 10 -12 29 -42
44 -67 23 -40 29 -44 55 -39 25 5 26 6 6 11 l-21 6 30 71 30 71 87 27 c48 14
91 26 95 26 4 0 5 -15 2 -32 -3 -21 0 -15 10 15 15 46 15 48 -8 76 -13 15 -59
91 -103 169 -44 77 -81 139 -83 137 -2 -2 40 -79 93 -170 53 -92 93 -171 88
-175 -15 -15 -186 -61 -193 -53 -4 4 -46 76 -95 158 -48 83 -96 164 -107 182
l-19 31 96 32 c53 18 102 29 110 26 9 -3 12 0 8 10 -3 7 -6 14 -7 13 0 0 -45
-16 -98 -34z m-757 -453 l97 -187 -25 -72 c-14 -40 -28 -73 -31 -73 -9 0 -222
426 -222 443 0 11 68 76 80 77 3 0 48 -85 101 -188z m209 138 c11 -22 18 -40
15 -40 -2 0 -14 18 -25 40 -11 22 -18 40 -15 40 2 0 14 -18 25 -40z"/>
<path d="M3675 4790 c-13 -5 -14 -9 -5 -9 8 0 24 4 35 9 13 5 14 9 5 9 -8 0
-24 -4 -35 -9z"/>
<path d="M3628 4773 c7 -3 16 -2 19 1 4 3 -2 6 -13 5 -11 0 -14 -3 -6 -6z"/>
<path d="M4009 4763 c-13 -16 -12 -17 4 -4 9 7 17 15 17 17 0 8 -8 3 -21 -13z"/>
<path d="M5673 4743 c-8 -36 -12 -39 -83 -65 -91 -32 -83 -36 12 -6 65 21 69
24 79 61 6 21 8 41 6 44 -3 2 -9 -13 -14 -34z"/>
<path d="M6058 4733 c7 -3 16 -2 19 1 4 3 -2 6 -13 5 -11 0 -14 -3 -6 -6z"/>
<path d="M3981 4725 c0 -5 24 -57 54 -115 30 -58 54 -100 54 -95 0 6 -24 57
-54 115 -30 58 -54 101 -54 95z"/>
<path d="M6018 4723 c7 -3 16 -2 19 1 4 3 -2 6 -13 5 -11 0 -14 -3 -6 -6z"/>
<path d="M5291 4704 c0 -11 3 -14 6 -6 3 7 2 16 -1 19 -3 4 -6 -2 -5 -13z"/>
<path d="M5978 4713 c7 -3 16 -2 19 1 4 3 -2 6 -13 5 -11 0 -14 -3 -6 -6z"/>
<path d="M5938 4703 c7 -3 16 -2 19 1 4 3 -2 6 -13 5 -11 0 -14 -3 -6 -6z"/>
<path d="M3275 4690 c-13 -5 -14 -9 -5 -9 8 0 24 4 35 9 13 5 14 9 5 9 -8 0
-24 -4 -35 -9z"/>
<path d="M5898 4693 c7 -3 16 -2 19 1 4 3 -2 6 -13 5 -11 0 -14 -3 -6 -6z"/>
<path d="M3455 4680 c-13 -5 -14 -9 -5 -9 8 0 24 4 35 9 13 5 14 9 5 9 -8 0
-24 -4 -35 -9z"/>
<path d="M3228 4673 c7 -3 16 -2 19 1 4 3 -2 6 -13 5 -11 0 -14 -3 -6 -6z"/>
<path d="M5281 4664 c0 -11 3 -14 6 -6 3 7 2 16 -1 19 -3 4 -6 -2 -5 -13z"/>
<path d="M3145 4655 c-39 -14 -40 -14 -5 -8 41 7 82 22 60 22 -8 0 -33 -7 -55
-14z"/>
<path d="M3408 4663 c7 -3 16 -2 19 1 4 3 -2 6 -13 5 -11 0 -14 -3 -6 -6z"/>
<path d="M3345 4650 c-13 -5 -14 -9 -5 -9 8 0 24 4 35 9 13 5 14 9 5 9 -8 0
-24 -4 -35 -9z"/>
<path d="M5271 4624 c0 -11 3 -14 6 -6 3 7 2 16 -1 19 -3 4 -6 -2 -5 -13z"/>
<path d="M5615 4630 c-15 -7 -10 -8 16 -4 34 5 37 3 68 -45 18 -28 35 -51 38
-51 3 0 -5 15 -17 33 -11 17 -26 42 -32 55 -12 23 -38 27 -73 12z"/>
<path d="M5545 4610 c-13 -5 -14 -9 -5 -9 8 0 24 4 35 9 13 5 14 9 5 9 -8 0
-24 -4 -35 -9z"/>
<path d="M5261 4593 c-1 -6 -13 -16 -28 -22 l-28 -11 30 6 c36 7 39 9 32 26
-4 8 -6 9 -6 1z"/>
<path d="M5470 4589 c-25 -10 -43 -28 -81 -84 -12 -16 -5 -11 16 13 20 23 40
42 45 42 9 0 140 -217 140 -233 0 -16 -44 -127 -50 -127 -3 0 -20 25 -38 55
-18 30 -35 55 -38 55 -3 0 5 -17 17 -37 50 -83 64 -99 83 -95 14 3 16 6 6 12
-10 6 -8 20 10 67 13 32 26 62 30 66 14 16 200 65 200 53 0 -25 -42 -135 -53
-139 -7 -2 -5 -3 3 -3 22 2 74 154 62 181 -11 23 -72 101 -72 92 0 -4 13 -28
30 -53 16 -26 28 -49 26 -52 -8 -7 -200 -61 -204 -57 -3 2 -35 55 -73 117
l-67 113 31 12 c18 6 25 12 17 12 -8 0 -26 -5 -40 -10z"/>
<path d="M2482 4560 c0 -14 2 -19 5 -12 2 6 2 18 0 25 -3 6 -5 1 -5 -13z"/>
<path d="M2848 4563 c7 -3 16 -2 19 1 4 3 -2 6 -13 5 -11 0 -14 -3 -6 -6z"/>
<path d="M2765 4545 c-39 -14 -40 -14 -5 -8 41 7 82 22 60 22 -8 0 -33 -7 -55
-14z"/>
<path d="M3005 4550 c-13 -5 -14 -9 -5 -9 8 0 24 4 35 9 13 5 14 9 5 9 -8 0
-24 -4 -35 -9z"/>
<path d="M5178 4553 c7 -3 16 -2 19 1 4 3 -2 6 -13 5 -11 0 -14 -3 -6 -6z"/>
<path d="M5261 4535 c7 -17 149 -225 154 -225 3 0 -27 48 -66 108 -69 102 -96
139 -88 117z"/>
<path d="M2471 4514 c0 -11 3 -14 6 -6 3 7 2 16 -1 19 -3 4 -6 -2 -5 -13z"/>
<path d="M2698 4523 c7 -3 16 -2 19 1 4 3 -2 6 -13 5 -11 0 -14 -3 -6 -6z"/>
<path d="M5228 4523 c7 -3 16 -2 19 1 4 3 -2 6 -13 5 -11 0 -14 -3 -6 -6z"/>
<path d="M1071 4471 l-23 -48 31 -54 c17 -30 31 -50 31 -45 0 5 -12 29 -26 54
l-27 45 22 45 c12 24 20 46 18 48 -2 2 -14 -18 -26 -45z"/>
<path d="M2658 4513 c7 -3 16 -2 19 1 4 3 -2 6 -13 5 -11 0 -14 -3 -6 -6z"/>
<path d="M5188 4513 c7 -3 16 -2 19 1 4 3 -2 6 -13 5 -11 0 -14 -3 -6 -6z"/>
<path d="M5085 4503 c-11 -3 -27 -10 -36 -17 -20 -14 -119 -129 -119 -138 0
-4 27 -49 60 -100 33 -51 60 -90 60 -85 0 4 -25 46 -55 92 -30 47 -55 89 -55
94 0 4 24 34 53 66 l52 57 49 -88 c27 -49 59 -107 72 -129 l23 -40 -33 -79
-33 -80 -28 42 c-15 23 -30 42 -32 42 -3 0 2 -11 11 -25 56 -87 43 -81 146
-60 14 3 3 -3 -25 -13 -27 -11 -61 -24 -75 -29 -14 -6 -44 -35 -68 -64 -43
-54 -43 -54 -4 -11 22 23 44 42 48 42 5 0 36 -51 70 -113 l60 -114 -27 -64
c-16 -35 -33 -63 -39 -61 -8 1 -8 -3 -1 -17 8 -14 17 -17 38 -13 25 5 26 6 7
11 l-22 6 25 60 25 60 110 31 110 32 -6 -27 c-5 -24 -4 -24 8 4 14 30 10 68
-4 45 -9 -14 -203 -72 -211 -62 -4 4 -34 60 -68 124 l-62 117 73 21 c40 12 85
25 100 30 32 10 28 14 97 -107 29 -51 55 -93 58 -93 3 0 -6 19 -20 43 -13 23
-42 72 -63 110 -21 37 -45 67 -54 67 -9 1 -6 6 10 15 34 19 23 19 -76 -6 -46
-12 -87 -20 -89 -17 -2 2 8 33 22 69 l27 64 104 33 c76 25 107 30 112 22 5 -8
9 -4 13 9 3 12 2 21 -2 21 -4 0 -54 -16 -111 -35 -57 -19 -104 -34 -106 -32
-14 17 -144 260 -140 264 2 3 28 11 58 18 46 11 49 13 18 13 -19 0 -44 -3 -55
-5z m192 -439 c-3 -3 -12 -4 -19 -1 -8 3 -5 6 6 6 11 1 17 -2 13 -5z"/>
<path d="M4571 4480 c14 -31 19 -36 19 -24 0 6 -7 19 -16 30 -14 18 -14 18 -3
-6z"/>
<path d="M2461 4484 c-1 -6 -16 -16 -33 -22 l-33 -11 35 6 c42 6 44 8 37 25
-3 7 -6 8 -6 2z"/>
<path d="M2718 4483 c6 -2 18 -2 25 0 6 3 1 5 -13 5 -14 0 -19 -2 -12 -5z"/>
<path d="M2678 4473 c7 -3 16 -2 19 1 4 3 -2 6 -13 5 -11 0 -14 -3 -6 -6z"/>
<path d="M2628 4463 c6 -2 18 -2 25 0 6 3 1 5 -13 5 -14 0 -19 -2 -12 -5z"/>
<path d="M4830 4460 c-13 -8 -12 -10 3 -10 9 0 17 5 17 10 0 12 -1 12 -20 0z"/>
<path d="M2588 4453 c7 -3 16 -2 19 1 4 3 -2 6 -13 5 -11 0 -14 -3 -6 -6z"/>
<path d="M5370 4458 c0 -4 18 -36 40 -70 22 -35 40 -59 40 -55 0 10 -80 135
-80 125z"/>
<path d="M2345 4440 c-13 -5 -14 -9 -5 -9 8 0 24 4 35 9 13 5 14 9 5 9 -8 0
-24 -4 -35 -9z"/>
<path d="M4778 4443 c6 -2 18 -2 25 0 6 3 1 5 -13 5 -14 0 -19 -2 -12 -5z"/>
<path d="M4738 4433 c7 -3 16 -2 19 1 4 3 -2 6 -13 5 -11 0 -14 -3 -6 -6z"/>
<path d="M2275 4420 c-13 -5 -14 -9 -5 -9 8 0 24 4 35 9 13 5 14 9 5 9 -8 0
-24 -4 -35 -9z"/>
<path d="M4660 4420 c-20 -6 -21 -8 -5 -8 11 0 31 4 45 8 20 6 21 8 5 8 -11 0
-31 -4 -45 -8z"/>
<path d="M2021 4376 c-9 -36 -17 -47 -37 -52 -14 -4 -23 -8 -21 -11 3 -2 16
-1 30 2 20 5 28 16 36 52 7 25 10 47 8 50 -3 2 -10 -17 -16 -41z"/>
<path d="M4805 4410 c-16 -7 -13 -9 14 -7 33 2 34 0 103 -122 38 -68 66 -127
61 -131 -7 -7 -226 -71 -229 -67 -1 1 -33 60 -72 132 -49 90 -67 132 -59 137
8 5 8 8 1 8 -5 0 -34 -35 -63 -77 -59 -87 -59 -95 -6 -162 44 -55 44 -48 0 26
-38 64 -41 48 23 146 l25 37 17 -27 c9 -16 39 -71 67 -123 l51 -95 -25 -67
c-14 -38 -28 -68 -32 -68 -3 0 -21 25 -39 55 -18 30 -35 55 -38 55 -6 0 24
-51 60 -106 17 -25 25 -29 46 -23 17 5 19 7 7 8 -20 1 -18 13 13 86 l18 41
117 33 c64 18 119 30 121 28 3 -2 -6 -34 -19 -71 -14 -36 -22 -66 -18 -66 4 0
18 35 32 78 l26 79 -76 136 c-76 137 -84 145 -126 127z"/>
<path d="M4758 4393 c7 -3 16 -2 19 1 4 3 -2 6 -13 5 -11 0 -14 -3 -6 -6z"/>
<path d="M4457 4376 c-3 -8 -37 -25 -76 -37 -39 -13 -69 -25 -67 -27 9 -8 146
43 151 56 3 8 4 17 1 19 -2 2 -6 -3 -9 -11z"/>
<path d="M4718 4383 c7 -3 16 -2 19 1 4 3 -2 6 -13 5 -11 0 -14 -3 -6 -6z"/>
<path d="M4655 4370 c-13 -5 -14 -9 -5 -9 8 0 24 4 35 9 13 5 14 9 5 9 -8 0
-24 -4 -35 -9z"/>
<path d="M4065 4288 c-4 -18 -12 -39 -17 -45 -7 -9 -7 -13 0 -13 12 0 37 78
29 87 -3 2 -8 -11 -12 -29z"/>
<path d="M1592 4290 c0 -14 2 -19 5 -12 2 6 2 18 0 25 -3 6 -5 1 -5 -13z"/>
<path d="M1905 4300 c-13 -5 -14 -9 -5 -9 8 0 24 4 35 9 13 5 14 9 5 9 -8 0
-24 -4 -35 -9z"/>
<path d="M4420 4291 c0 -6 4 -13 10 -16 6 -3 7 1 4 9 -7 18 -14 21 -14 7z"/>
<path d="M1835 4280 c-13 -5 -14 -9 -5 -9 8 0 24 4 35 9 13 5 14 9 5 9 -8 0
-24 -4 -35 -9z"/>
<path d="M4388 4283 c7 -3 16 -2 19 1 4 3 -2 6 -13 5 -11 0 -14 -3 -6 -6z"/>
<path d="M4348 4273 c7 -3 16 -2 19 1 4 3 -2 6 -13 5 -11 0 -14 -3 -6 -6z"/>
<path d="M4308 4263 c7 -3 16 -2 19 1 4 3 -2 6 -13 5 -11 0 -14 -3 -6 -6z"/>
<path d="M1582 4240 c0 -14 2 -19 5 -12 2 6 2 18 0 25 -3 6 -5 1 -5 -13z"/>
<path d="M4268 4253 c7 -3 16 -2 19 1 4 3 -2 6 -13 5 -11 0 -14 -3 -6 -6z"/>
<path d="M4228 4243 c7 -3 16 -2 19 1 4 3 -2 6 -13 5 -11 0 -14 -3 -6 -6z"/>
<path d="M4450 4244 c0 -6 7 -19 16 -30 14 -18 14 -18 3 6 -14 31 -19 36 -19
24z"/>
<path d="M4137 4178 c-26 -34 -47 -69 -47 -76 0 -17 97 -189 111 -197 5 -4 18
-24 29 -45 11 -21 27 -45 36 -55 16 -15 18 -12 40 56 12 39 27 76 32 81 5 5
60 22 122 38 l112 28 -6 -26 c-5 -26 -5 -26 8 3 16 35 11 61 -9 42 -18 -18
-213 -63 -225 -51 -21 22 -140 246 -135 255 4 5 0 9 -7 9 -7 0 -34 -28 -61
-62z m121 -87 l69 -125 -24 -73 c-14 -40 -28 -73 -33 -73 -8 0 -170 276 -170
290 0 9 81 112 86 108 1 -2 34 -59 72 -127z"/>
<path d="M3690 4193 c-7 -21 -19 -48 -26 -60 -8 -13 -10 -23 -5 -23 10 0 55
110 47 117 -2 2 -9 -13 -16 -34z"/>
<path d="M4008 4223 c7 -3 16 -2 19 1 4 3 -2 6 -13 5 -11 0 -14 -3 -6 -6z"/>
<path d="M5708 4223 c7 -3 16 -2 19 1 4 3 -2 6 -13 5 -11 0 -14 -3 -6 -6z"/>
<path d="M3925 4205 c-39 -14 -40 -14 -5 -8 41 7 82 22 60 22 -8 0 -33 -7 -55
-14z"/>
<path d="M5625 4205 c-39 -14 -40 -14 -5 -8 41 7 82 22 60 22 -8 0 -33 -7 -55
-14z"/>
<path d="M1567 4190 c-3 -11 -1 -20 4 -20 5 0 9 9 9 20 0 11 -2 20 -4 20 -2 0
-6 -9 -9 -20z"/>
<path d="M5382 4163 c-15 -48 -8 -55 8 -8 7 20 10 38 8 41 -3 2 -10 -13 -16
-33z"/>
<path d="M2408 4183 c7 -3 16 -2 19 1 4 3 -2 6 -13 5 -11 0 -14 -3 -6 -6z"/>
<path d="M2358 4173 c6 -2 18 -2 25 0 6 3 1 5 -13 5 -14 0 -19 -2 -12 -5z"/>
<path d="M3990 4173 c8 -3 21 -10 28 -16 9 -7 11 -6 6 7 -3 9 -16 16 -28 15
-14 0 -16 -2 -6 -6z"/>
<path d="M4490 4175 c0 -8 61 -115 66 -115 2 0 -7 25 -21 56 -14 31 -25 58
-25 60 0 2 -4 4 -10 4 -5 0 -10 -2 -10 -5z"/>
<path d="M5695 4169 c-20 -7 -20 -8 1 -8 14 -1 29 -16 48 -51 29 -54 47 -70
20 -19 -39 75 -48 86 -69 78z"/>
<path d="M1485 4155 c-39 -14 -40 -14 -5 -8 41 7 82 22 60 22 -8 0 -33 -7 -55
-14z"/>
<path d="M2318 4163 c7 -3 16 -2 19 1 4 3 -2 6 -13 5 -11 0 -14 -3 -6 -6z"/>
<path d="M3925 4160 c-13 -5 -14 -9 -5 -9 8 0 24 4 35 9 13 5 14 9 5 9 -8 0
-24 -4 -35 -9z"/>
<path d="M2278 4153 c7 -3 16 -2 19 1 4 3 -2 6 -13 5 -11 0 -14 -3 -6 -6z"/>
<path d="M5610 4145 c-19 -7 -28 -13 -20 -13 8 0 31 6 50 13 19 7 28 13 20 13
-8 0 -31 -6 -50 -13z"/>
<path d="M2228 4143 c6 -2 18 -2 25 0 6 3 1 5 -13 5 -14 0 -19 -2 -12 -5z"/>
<path d="M3855 4140 c-13 -5 -14 -9 -5 -9 8 0 24 4 35 9 13 5 14 9 5 9 -8 0
-24 -4 -35 -9z"/>
<path d="M1418 4133 c7 -3 16 -2 19 1 4 3 -2 6 -13 5 -11 0 -14 -3 -6 -6z"/>
<path d="M2188 4133 c7 -3 16 -2 19 1 4 3 -2 6 -13 5 -11 0 -14 -3 -6 -6z"/>
<path d="M1378 4123 c7 -3 16 -2 19 1 4 3 -2 6 -13 5 -11 0 -14 -3 -6 -6z"/>
<path d="M2148 4123 c7 -3 16 -2 19 1 4 3 -2 6 -13 5 -11 0 -14 -3 -6 -6z"/>
<path d="M3784 4120 c-31 -12 -37 -27 -15 -33 13 -3 18 0 15 8 -3 8 6 17 23
23 15 6 21 10 13 11 -8 0 -25 -4 -36 -9z"/>
<path d="M4040 4126 c0 -4 27 -55 61 -113 33 -58 57 -109 52 -113 -4 -4 -55
-21 -113 -38 l-105 -31 -17 22 c-18 23 -25 13 -8 -13 12 -19 -57 -153 -76
-146 -8 3 -11 0 -7 -10 3 -7 14 -14 25 -14 10 0 16 5 13 10 -4 6 9 39 29 74
l35 63 110 31 c60 18 112 32 115 32 3 0 6 -8 7 -17 0 -10 5 -4 10 13 8 28 3
41 -37 110 -49 84 -94 151 -94 140z"/>
<path d="M1315 4110 c-13 -5 -14 -9 -5 -9 8 0 24 4 35 9 13 5 14 9 5 9 -8 0
-24 -4 -35 -9z"/>
<path d="M2098 4113 c6 -2 18 -2 25 0 6 3 1 5 -13 5 -14 0 -19 -2 -12 -5z"/>
<path d="M3310 4075 c-7 -25 -20 -50 -29 -55 -15 -9 -14 -9 1 -10 11 0 22 16
33 51 9 28 15 52 12 55 -2 2 -10 -16 -17 -41z"/>
<path d="M5498 4113 c-9 -2 -24 -16 -34 -31 -17 -27 -17 -27 3 -9 11 9 22 17
25 17 8 0 121 -202 121 -216 0 -6 -10 -37 -23 -69 l-23 -57 -19 23 c-15 18
-17 19 -9 4 20 -42 35 -52 61 -45 l25 8 -24 1 c-18 1 -22 5 -16 19 4 9 16 40
27 68 l20 52 -61 105 c-34 58 -61 110 -61 116 0 5 8 12 18 14 11 3 12 5 2 5
-8 0 -23 -2 -32 -5z"/>
<path d="M2068 4081 c18 -32 30 -34 17 -4 -5 10 -7 21 -7 26 1 4 -5 7 -13 7
-12 0 -11 -5 3 -29z"/>
<path d="M3595 4100 c-13 -5 -14 -9 -5 -9 8 0 24 4 35 9 13 5 14 9 5 9 -8 0
-24 -4 -35 -9z"/>
<path d="M3548 4083 c7 -3 16 -2 19 1 4 3 -2 6 -13 5 -11 0 -14 -3 -6 -6z"/>
<path d="M3485 4070 c-13 -5 -14 -9 -5 -9 8 0 24 4 35 9 13 5 14 9 5 9 -8 0
-24 -4 -35 -9z"/>
<path d="M3696 4026 c-20 -23 -36 -47 -36 -51 0 -5 11 -23 25 -41 14 -18 25
-39 25 -46 0 -7 20 -44 45 -83 25 -38 45 -66 45 -61 0 4 -27 56 -60 116 -33
60 -60 115 -60 122 0 7 14 30 31 51 17 20 28 37 25 37 -2 0 -21 -20 -40 -44z"/>
<path d="M3790 4063 c0 -11 39 -73 45 -73 3 0 -4 18 -15 40 -19 38 -30 49 -30
33z"/>
<path d="M1787 4038 c-32 -11 -56 -22 -54 -24 2 -2 23 3 47 11 59 21 67 19 86
-17 24 -49 138 -237 141 -234 2 2 -154 277 -161 282 0 1 -27 -8 -59 -18z"/>
<path d="M3590 4057 c0 -4 32 -66 71 -138 38 -72 67 -134 64 -137 -4 -4 -58
-19 -122 -33 l-115 -27 -35 77 c-74 160 -83 183 -77 193 4 5 -1 8 -10 6 -8 -1
-40 -32 -70 -67 l-54 -65 36 -72 c20 -41 38 -72 40 -70 2 2 -10 31 -27 65 -17
33 -31 67 -31 75 0 8 21 38 48 66 l47 52 61 -133 61 -133 -30 -73 c-17 -40
-34 -73 -37 -73 -4 0 -19 27 -35 61 -16 33 -33 63 -38 66 -4 3 8 -27 27 -65
37 -74 46 -81 86 -73 24 4 24 5 3 10 l-21 6 25 60 c14 33 28 64 33 68 9 10
218 59 231 55 4 -2 -1 -23 -12 -47 -10 -24 -18 -46 -15 -48 2 -2 16 25 30 59
l27 64 -26 47 c-15 26 -31 49 -36 52 -5 4 -9 14 -9 24 0 10 -13 36 -29 58 -15
21 -36 52 -44 69 -9 16 -16 26 -17 21z"/>
<path d="M3558 4043 c7 -3 16 -2 19 1 4 3 -2 6 -13 5 -11 0 -14 -3 -6 -6z"/>
<path d="M3518 4033 c7 -3 16 -2 19 1 4 3 -2 6 -13 5 -11 0 -14 -3 -6 -6z"/>
<path d="M5417 4017 c-14 -22 -14 -26 4 -53 20 -31 27 -26 7 5 -9 15 -9 25 0
45 14 32 9 33 -11 3z"/>
<path d="M5790 4036 c0 -5 12 -29 26 -53 14 -25 23 -47 21 -50 -3 -2 -47 -15
-97 -28 -50 -13 -94 -26 -97 -29 -10 -10 8 -7 105 18 50 13 92 21 92 17 0 -22
-35 -108 -48 -118 -14 -12 -14 -13 0 -13 11 0 24 23 41 73 l25 74 -34 59 c-19
32 -34 55 -34 50z"/>
<path d="M3478 4023 c7 -3 16 -2 19 1 4 3 -2 6 -13 5 -11 0 -14 -3 -6 -6z"/>
<path d="M3438 4013 c7 -3 16 -2 19 1 4 3 -2 6 -13 5 -11 0 -14 -3 -6 -6z"/>
<path d="M2935 3976 c-4 -20 -15 -41 -24 -46 -15 -9 -15 -9 1 -10 12 0 21 13
28 41 6 23 9 43 6 46 -2 3 -8 -11 -11 -31z"/>
<path d="M3238 4003 c7 -3 16 -2 19 1 4 3 -2 6 -13 5 -11 0 -14 -3 -6 -6z"/>
<path d="M3398 4003 c7 -3 16 -2 19 1 4 3 -2 6 -13 5 -11 0 -14 -3 -6 -6z"/>
<path d="M3155 3985 c-39 -14 -40 -14 -5 -8 41 7 82 22 60 22 -8 0 -33 -7 -55
-14z"/>
<path d="M1587 3968 c-32 -11 -56 -22 -54 -24 4 -5 127 36 127 42 0 6 -11 4
-73 -18z"/>
<path d="M4908 3983 c7 -3 16 -2 19 1 4 3 -2 6 -13 5 -11 0 -14 -3 -6 -6z"/>
<path d="M4868 3973 c7 -3 16 -2 19 1 4 3 -2 6 -13 5 -11 0 -14 -3 -6 -6z"/>
<path d="M4828 3963 c7 -3 16 -2 19 1 4 3 -2 6 -13 5 -11 0 -14 -3 -6 -6z"/>
<path d="M3850 3953 c0 -11 39 -73 45 -73 3 0 -4 18 -15 40 -19 38 -30 49 -30
33z"/>
<path d="M4788 3953 c7 -3 16 -2 19 1 4 3 -2 6 -13 5 -11 0 -14 -3 -6 -6z"/>
<path d="M4540 3915 c-8 -25 -22 -41 -44 -51 -25 -12 -26 -14 -6 -10 14 3 28
6 31 6 9 0 41 81 35 87 -2 2 -9 -12 -16 -32z"/>
<path d="M4748 3943 c7 -3 16 -2 19 1 4 3 -2 6 -13 5 -11 0 -14 -3 -6 -6z"/>
<path d="M3125 3929 c-17 -8 -16 -9 6 -4 23 4 28 -1 49 -46 13 -28 28 -53 33
-56 4 -3 -6 22 -23 56 -32 64 -33 65 -65 50z"/>
<path d="M4845 3930 c-13 -5 -14 -9 -5 -9 8 0 24 4 35 9 13 5 14 9 5 9 -8 0
-24 -4 -35 -9z"/>
<path d="M1454 3923 c-12 -2 -26 -18 -35 -41 -22 -58 -21 -60 4 -14 l23 44 84
-127 84 -126 -28 -86 -28 -85 -85 138 c-65 105 -84 143 -80 163 5 24 4 24 -9
7 -7 -10 -10 -24 -7 -30 58 -98 169 -274 178 -284 6 -7 19 -10 29 -6 13 5 14
9 6 14 -9 6 -7 25 10 76 12 38 26 73 30 77 9 10 337 99 368 99 12 0 22 4 22 9
0 14 -12 12 -192 -36 -93 -25 -178 -45 -189 -45 -13 0 -41 34 -89 105 -82 123
-88 134 -69 146 14 9 9 9 -27 2z"/>
<path d="M2586 3894 c-4 -20 -5 -38 -3 -40 3 -3 8 11 11 32 4 20 5 38 3 40 -3
3 -8 -11 -11 -32z"/>
<path d="M4982 3821 c40 -60 74 -108 76 -106 4 4 -137 215 -143 215 -3 0 28
-49 67 -109z"/>
<path d="M2868 3913 c7 -3 16 -2 19 1 4 3 -2 6 -13 5 -11 0 -14 -3 -6 -6z"/>
<path d="M3035 3905 c-39 -14 -40 -14 -5 -8 41 7 82 22 60 22 -8 0 -33 -7 -55
-14z"/>
<path d="M4775 3910 c-13 -5 -14 -9 -5 -9 8 0 24 4 35 9 13 5 14 9 5 9 -8 0
-24 -4 -35 -9z"/>
<path d="M5471 3883 c34 -57 49 -78 49 -70 0 9 -61 107 -67 107 -2 0 6 -17 18
-37z"/>
<path d="M2828 3903 c7 -3 16 -2 19 1 4 3 -2 6 -13 5 -11 0 -14 -3 -6 -6z"/>
<path d="M2788 3893 c7 -3 16 -2 19 1 4 3 -2 6 -13 5 -11 0 -14 -3 -6 -6z"/>
<path d="M4709 3893 c-24 -6 -115 -123 -111 -141 4 -16 29 -55 119 -185 51
-73 85 -104 76 -69 -2 9 5 42 15 72 l19 55 69 17 c101 25 154 32 154 20 0 -6
-9 -31 -19 -55 -18 -42 -25 -47 -75 -63 -31 -10 -54 -19 -52 -22 2 -2 29 4 60
14 54 17 56 19 80 78 13 34 21 64 17 68 -4 4 -57 -3 -119 -16 l-112 -24 -29
52 c-15 28 -45 81 -65 118 l-37 66 28 10 c27 10 14 14 -18 5z m48 -145 l61
-111 -19 -54 c-10 -29 -21 -58 -25 -64 -7 -12 -164 223 -164 245 0 13 67 96
78 96 4 0 35 -50 69 -112z"/>
<path d="M2748 3883 c7 -3 16 -2 19 1 4 3 -2 6 -13 5 -11 0 -14 -3 -6 -6z"/>
<path d="M2968 3883 c7 -3 16 -2 19 1 4 3 -2 6 -13 5 -11 0 -14 -3 -6 -6z"/>
<path d="M2708 3873 c7 -3 16 -2 19 1 4 3 -2 6 -13 5 -11 0 -14 -3 -6 -6z"/>
<path d="M2876 3806 l-56 -73 58 -89 c32 -49 71 -110 87 -136 17 -26 34 -49
40 -51 5 -2 28 2 50 9 l40 13 -39 -6 c-36 -5 -39 -4 -32 13 5 10 17 42 28 70
l20 51 100 27 c56 14 103 24 106 22 7 -8 -39 -135 -51 -139 -7 -2 -5 -3 3 -3
9 1 25 31 43 80 l27 79 -32 63 c-18 35 -34 61 -36 59 -2 -1 8 -26 22 -54 14
-28 26 -54 26 -58 0 -5 -39 -18 -87 -31 -49 -12 -97 -25 -109 -28 -18 -5 -29
9 -79 98 -32 57 -63 111 -69 121 -8 13 -7 20 4 27 8 5 10 10 4 10 -6 0 -37
-33 -68 -74z m97 -54 c25 -42 54 -93 65 -112 l20 -35 -28 -70 -27 -69 -39 59
c-20 33 -57 90 -81 128 -24 37 -43 73 -43 80 0 19 71 108 80 102 5 -3 28 -40
53 -83z"/>
<path d="M4415 3840 c-13 -5 -14 -9 -5 -9 8 0 24 4 35 9 13 5 14 9 5 9 -8 0
-24 -4 -35 -9z"/>
<path d="M2570 3828 c0 -9 -6 -19 -12 -21 -10 -4 -10 -6 0 -6 14 -1 28 26 18
36 -3 4 -6 -1 -6 -9z"/>
<path d="M4146 3814 c-4 -14 -5 -28 -3 -31 3 -2 8 8 11 23 4 14 5 28 3 31 -3
2 -8 -8 -11 -23z"/>
<path d="M5041 3820 c14 -31 19 -36 19 -24 0 6 -7 19 -16 30 -14 18 -14 18 -3
-6z"/>
<path d="M4330 3815 c-19 -7 -28 -13 -20 -13 8 0 31 6 50 13 19 7 28 13 20 13
-8 0 -31 -6 -50 -13z"/>
<path d="M4510 3827 c0 -4 34 -58 75 -120 41 -61 75 -106 75 -100 0 7 -16 36
-35 65 -54 80 -115 162 -115 155z"/>
<path d="M2740 3817 c0 -4 30 -62 66 -129 36 -66 62 -124 57 -128 -13 -12
-993 -272 -1006 -267 -15 6 -124 213 -116 221 3 3 69 25 147 48 99 29 139 44
133 52 -5 6 -11 29 -14 51 l-4 40 -1 -46 -2 -46 -92 -27 c-211 -62 -228 -68
-218 -80 6 -9 -5 -29 -37 -67 l-45 -54 57 59 57 60 30 -55 c16 -30 43 -80 59
-112 l29 -57 -36 -80 c-20 -44 -40 -80 -44 -80 -3 0 -37 56 -75 125 -38 68
-71 123 -73 121 -6 -7 133 -248 146 -254 7 -2 27 0 45 7 18 6 22 9 10 7 -29
-5 -29 -2 7 77 29 64 31 66 82 80 29 9 257 70 507 137 344 93 455 119 461 110
6 -9 9 -8 12 6 2 10 -17 60 -43 109 -60 114 -99 182 -99 172z"/>
<path d="M4455 3810 c-13 -5 -14 -9 -5 -9 8 0 24 4 35 9 13 5 14 9 5 9 -8 0
-24 -4 -35 -9z"/>
<path d="M2685 3800 c-13 -5 -14 -9 -5 -9 8 0 24 4 35 9 13 5 14 9 5 9 -8 0
-24 -4 -35 -9z"/>
<path d="M2156 3785 c-3 -9 -6 -22 -5 -28 0 -7 5 -1 10 12 5 13 8 26 5 28 -2
2 -6 -3 -10 -12z"/>
<path d="M2495 3790 c-13 -5 -14 -9 -5 -9 8 0 24 4 35 9 13 5 14 9 5 9 -8 0
-24 -4 -35 -9z"/>
<path d="M4385 3790 c-13 -5 -14 -9 -5 -9 8 0 24 4 35 9 13 5 14 9 5 9 -8 0
-24 -4 -35 -9z"/>
<path d="M2615 3780 c-13 -5 -14 -9 -5 -9 8 0 24 4 35 9 13 5 14 9 5 9 -8 0
-24 -4 -35 -9z"/>
<path d="M2448 3773 c7 -3 16 -2 19 1 4 3 -2 6 -13 5 -11 0 -14 -3 -6 -6z"/>
<path d="M4318 3768 c-8 -7 -30 -35 -47 -61 -30 -44 -31 -50 -21 -82 6 -19 28
-61 49 -93 21 -31 50 -79 65 -105 15 -27 34 -51 41 -54 8 -2 64 12 125 32 79
26 110 41 110 53 0 14 -1 14 -12 0 -15 -18 -206 -83 -216 -74 -3 4 4 37 16 75
l22 69 93 21 c112 26 107 26 108 -1 1 -18 3 -17 8 7 4 17 6 31 5 33 -1 1 -48
-8 -105 -22 -57 -13 -105 -24 -106 -23 -9 10 -123 211 -123 217 0 5 8 11 18
13 13 4 14 5 1 6 -8 0 -22 -5 -31 -11z m61 -123 l62 -106 -22 -69 c-13 -38
-26 -67 -30 -64 -8 4 -139 241 -139 250 0 7 60 94 64 94 2 0 32 -47 65 -105z"/>
<path d="M5748 3773 c7 -3 16 -2 19 1 4 3 -2 6 -13 5 -11 0 -14 -3 -6 -6z"/>
<path d="M2408 3763 c7 -3 16 -2 19 1 4 3 -2 6 -13 5 -11 0 -14 -3 -6 -6z"/>
<path d="M2545 3760 c-13 -5 -14 -9 -5 -9 8 0 24 4 35 9 13 5 14 9 5 9 -8 0
-24 -4 -35 -9z"/>
<path d="M4105 3753 l-30 -14 30 6 c31 7 41 12 34 19 -2 2 -17 -3 -34 -11z"/>
<path d="M5081 3750 c14 -31 19 -36 19 -24 0 6 -7 19 -16 30 -14 18 -14 18 -3
-6z"/>
<path d="M5665 3755 c-39 -14 -40 -14 -5 -8 41 7 82 22 60 22 -8 0 -33 -7 -55
-14z"/>
<path d="M2345 3750 c-13 -5 -14 -9 -5 -9 8 0 24 4 35 9 13 5 14 9 5 9 -8 0
-24 -4 -35 -9z"/>
<path d="M2475 3740 c-13 -5 -14 -9 -5 -9 8 0 24 4 35 9 13 5 14 9 5 9 -8 0
-24 -4 -35 -9z"/>
<path d="M2298 3733 c7 -3 16 -2 19 1 4 3 -2 6 -13 5 -11 0 -14 -3 -6 -6z"/>
<path d="M5420 3706 c-6 -20 -19 -40 -28 -46 -16 -9 -16 -9 -1 -10 16 0 56 77
45 87 -2 2 -9 -12 -16 -31z"/>
<path d="M2132 3709 c-16 -26 -14 -28 18 -18 16 4 19 7 8 8 -11 1 -15 6 -12
16 9 22 1 18 -14 -6z"/>
<path d="M2258 3723 c7 -3 16 -2 19 1 4 3 -2 6 -13 5 -11 0 -14 -3 -6 -6z"/>
<path d="M2405 3720 c-13 -5 -14 -9 -5 -9 8 0 24 4 35 9 13 5 14 9 5 9 -8 0
-24 -4 -35 -9z"/>
<path d="M3995 3720 c-13 -5 -14 -9 -5 -9 8 0 24 4 35 9 13 5 14 9 5 9 -8 0
-24 -4 -35 -9z"/>
<path d="M5690 3715 c-19 -7 -28 -13 -20 -13 8 0 31 6 50 13 19 7 28 13 20 13
-8 0 -31 -6 -50 -13z"/>
<path d="M7075 3720 c-13 -5 -14 -9 -5 -9 8 0 24 4 35 9 13 5 14 9 5 9 -8 0
-24 -4 -35 -9z"/>
<path d="M2195 3710 c-13 -5 -14 -9 -5 -9 8 0 24 4 35 9 13 5 14 9 5 9 -8 0
-24 -4 -35 -9z"/>
<path d="M2335 3700 c-13 -5 -14 -9 -5 -9 8 0 24 4 35 9 13 5 14 9 5 9 -8 0
-24 -4 -35 -9z"/>
<path d="M4135 3699 c-17 -8 -16 -9 6 -4 25 4 31 -3 90 -106 35 -60 65 -105
67 -99 4 11 -39 90 -72 131 -12 15 -29 41 -38 58 -18 33 -22 35 -53 20z"/>
<path d="M7005 3700 c-13 -5 -14 -9 -5 -9 8 0 24 4 35 9 13 5 14 9 5 9 -8 0
-24 -4 -35 -9z"/>
<path d="M3895 3690 c-13 -5 -14 -9 -5 -9 8 0 24 4 35 9 13 5 14 9 5 9 -8 0
-24 -4 -35 -9z"/>
<path d="M5121 3680 c14 -31 19 -36 19 -24 0 6 -7 19 -16 30 -14 18 -14 18 -3
-6z"/>
<path d="M2265 3680 c-13 -5 -14 -9 -5 -9 8 0 24 4 35 9 13 5 14 9 5 9 -8 0
-24 -4 -35 -9z"/>
<path d="M4088 3683 c7 -3 16 -2 19 1 4 3 -2 6 -13 5 -11 0 -14 -3 -6 -6z"/>
<path d="M6935 3680 c-13 -5 -14 -9 -5 -9 8 0 24 4 35 9 13 5 14 9 5 9 -8 0
-24 -4 -35 -9z"/>
<path d="M4048 3673 c7 -3 16 -2 19 1 4 3 -2 6 -13 5 -11 0 -14 -3 -6 -6z"/>
<path d="M2195 3660 c-13 -5 -14 -9 -5 -9 8 0 24 4 35 9 13 5 14 9 5 9 -8 0
-24 -4 -35 -9z"/>
<path d="M4008 3663 c7 -3 16 -2 19 1 4 3 -2 6 -13 5 -11 0 -14 -3 -6 -6z"/>
<path d="M6700 3636 c0 -13 -6 -27 -12 -29 -8 -3 -6 -6 5 -6 12 -1 17 7 17 29
0 17 -2 30 -5 30 -3 0 -5 -11 -5 -24z"/>
<path d="M2125 3640 c-13 -5 -14 -9 -5 -9 8 0 24 4 35 9 13 5 14 9 5 9 -8 0
-24 -4 -35 -9z"/>
<path d="M3668 3628 c-14 -14 -15 -18 -4 -18 8 0 17 7 20 16 9 23 4 24 -16 2z"/>
<path d="M5348 3643 c7 -3 16 -2 19 1 4 3 -2 6 -13 5 -11 0 -14 -3 -6 -6z"/>
<path d="M5265 3625 c-39 -14 -40 -14 -5 -8 41 7 82 22 60 22 -8 0 -33 -7 -55
-14z"/>
<path d="M2055 3620 c-13 -5 -14 -9 -5 -9 8 0 24 4 35 9 13 5 14 9 5 9 -8 0
-24 -4 -35 -9z"/>
<path d="M3618 3603 c7 -3 16 -2 19 1 4 3 -2 6 -13 5 -11 0 -14 -3 -6 -6z"/>
<path d="M3540 3590 c-20 -6 -21 -8 -5 -8 11 0 31 4 45 8 20 6 21 8 5 8 -11 0
-31 -4 -45 -8z"/>
<path d="M5325 3590 c-13 -5 -14 -9 -5 -9 8 0 24 4 35 9 13 5 14 9 5 9 -8 0
-24 -4 -35 -9z"/>
<path d="M6648 3593 c7 -3 16 -2 19 1 4 3 -2 6 -13 5 -11 0 -14 -3 -6 -6z"/>
<path d="M6608 3583 c7 -3 16 -2 19 1 4 3 -2 6 -13 5 -11 0 -14 -3 -6 -6z"/>
<path d="M3488 3573 c7 -3 16 -2 19 1 4 3 -2 6 -13 5 -11 0 -14 -3 -6 -6z"/>
<path d="M5255 3570 c-13 -5 -14 -9 -5 -9 8 0 24 4 35 9 13 5 14 9 5 9 -8 0
-24 -4 -35 -9z"/>
<path d="M6302 3560 c0 -14 2 -19 5 -12 2 6 2 18 0 25 -3 6 -5 1 -5 -13z"/>
<path d="M6530 3570 c-20 -6 -21 -8 -5 -8 11 0 31 4 45 8 20 6 21 8 5 8 -11 0
-31 -4 -45 -8z"/>
<path d="M5185 3550 c-13 -5 -14 -9 -5 -9 8 0 24 4 35 9 13 5 14 9 5 9 -8 0
-24 -4 -35 -9z"/>
<path d="M6478 3553 c7 -3 16 -2 19 1 4 3 -2 6 -13 5 -11 0 -14 -3 -6 -6z"/>
<path d="M5115 3530 c-13 -5 -14 -9 -5 -9 8 0 24 4 35 9 13 5 14 9 5 9 -8 0
-24 -4 -35 -9z"/>
<path d="M3435 3520 c-13 -5 -14 -9 -5 -9 8 0 24 4 35 9 13 5 14 9 5 9 -8 0
-24 -4 -35 -9z"/>
<path d="M6291 3517 c0 -10 -11 -22 -23 -27 -13 -5 -16 -9 -8 -9 25 -1 42 15
37 35 -4 17 -5 17 -6 1z"/>
<path d="M4642 3500 c0 -14 2 -19 5 -12 2 6 2 18 0 25 -3 6 -5 1 -5 -13z"/>
<path d="M5045 3510 c-13 -5 -14 -9 -5 -9 8 0 24 4 35 9 13 5 14 9 5 9 -8 0
-24 -4 -35 -9z"/>
<path d="M1625 3500 c-13 -5 -14 -9 -5 -9 8 0 24 4 35 9 13 5 14 9 5 9 -8 0
-24 -4 -35 -9z"/>
<path d="M3155 3500 c-13 -5 -14 -9 -5 -9 8 0 24 4 35 9 13 5 14 9 5 9 -8 0
-24 -4 -35 -9z"/>
<path d="M4975 3490 c-13 -5 -14 -9 -5 -9 8 0 24 4 35 9 13 5 14 9 5 9 -8 0
-24 -4 -35 -9z"/>
<path d="M3108 3483 c7 -3 16 -2 19 1 4 3 -2 6 -13 5 -11 0 -14 -3 -6 -6z"/>
<path d="M2844 3449 c-7 -24 -19 -36 -44 -46 -20 -8 -25 -11 -10 -8 14 2 30 5
37 5 12 0 39 67 30 76 -2 2 -8 -10 -13 -27z"/>
<path d="M4905 3470 c-13 -5 -14 -9 -5 -9 8 0 24 4 35 9 13 5 14 9 5 9 -8 0
-24 -4 -35 -9z"/>
<path d="M5922 3460 c0 -14 2 -19 5 -12 2 6 2 18 0 25 -3 6 -5 1 -5 -13z"/>
<path d="M6180 3465 c-19 -7 -28 -13 -20 -13 8 0 31 6 50 13 19 7 28 13 20 13
-8 0 -31 -6 -50 -13z"/>
<path d="M3176 3450 c12 -4 33 -29 48 -54 15 -25 29 -46 32 -46 3 0 -5 17 -17
38 -13 20 -28 45 -33 55 -6 9 -20 17 -31 16 -19 0 -19 -1 1 -9z"/>
<path d="M4835 3450 c-13 -5 -14 -9 -5 -9 8 0 24 4 35 9 13 5 14 9 5 9 -8 0
-24 -4 -35 -9z"/>
<path d="M3105 3440 c-13 -5 -14 -9 -5 -9 8 0 24 4 35 9 13 5 14 9 5 9 -8 0
-24 -4 -35 -9z"/>
<path d="M6095 3440 c-13 -5 -14 -9 -5 -9 8 0 24 4 35 9 13 5 14 9 5 9 -8 0
-24 -4 -35 -9z"/>
<path d="M4788 3433 c7 -3 16 -2 19 1 4 3 -2 6 -13 5 -11 0 -14 -3 -6 -6z"/>
<path d="M5912 3410 c0 -14 2 -19 5 -12 2 6 2 18 0 25 -3 6 -5 1 -5 -13z"/>
<path d="M4718 3413 c7 -3 16 -2 19 1 4 3 -2 6 -13 5 -11 0 -14 -3 -6 -6z"/>
<path d="M4655 3400 c-13 -5 -14 -9 -5 -9 8 0 24 4 35 9 13 5 14 9 5 9 -8 0
-24 -4 -35 -9z"/>
<path d="M2738 3383 c7 -3 16 -2 19 1 4 3 -2 6 -13 5 -11 0 -14 -3 -6 -6z"/>
<path d="M4585 3380 c-13 -5 -14 -9 -5 -9 8 0 24 4 35 9 13 5 14 9 5 9 -8 0
-24 -4 -35 -9z"/>
<path d="M2675 3370 c-13 -5 -14 -9 -5 -9 8 0 24 4 35 9 13 5 14 9 5 9 -8 0
-24 -4 -35 -9z"/>
<path d="M5901 3372 c-1 -7 -11 -17 -23 -22 -13 -5 -16 -9 -8 -9 23 -1 43 15
37 30 -4 11 -6 11 -6 1z"/>
<path d="M4515 3360 c-13 -5 -14 -9 -5 -9 8 0 24 4 35 9 13 5 14 9 5 9 -8 0
-24 -4 -35 -9z"/>
<path d="M2605 3350 c-13 -5 -14 -9 -5 -9 8 0 24 4 35 9 13 5 14 9 5 9 -8 0
-24 -4 -35 -9z"/>
<path d="M2785 3349 c-15 -7 -12 -8 13 -3 20 3 39 1 48 -7 12 -10 13 -9 8 5
-7 17 -37 20 -69 5z"/>
<path d="M4270 3352 c0 -6 -8 -13 -17 -15 -16 -4 -16 -5 -1 -6 18 -1 34 16 24
26 -3 4 -6 1 -6 -5z"/>
<path d="M4445 3340 c-13 -5 -14 -9 -5 -9 8 0 24 4 35 9 13 5 14 9 5 9 -8 0
-24 -4 -35 -9z"/>
<path d="M2535 3330 c-13 -5 -14 -9 -5 -9 8 0 24 4 35 9 13 5 14 9 5 9 -8 0
-24 -4 -35 -9z"/>
<path d="M2738 3333 c7 -3 16 -2 19 1 4 3 -2 6 -13 5 -11 0 -14 -3 -6 -6z"/>
<path d="M5790 3325 c-19 -7 -28 -13 -20 -13 8 0 31 6 50 13 19 7 28 13 20 13
-8 0 -31 -6 -50 -13z"/>
<path d="M2698 3323 c7 -3 16 -2 19 1 4 3 -2 6 -13 5 -11 0 -14 -3 -6 -6z"/>
<path d="M4208 3323 c7 -3 16 -2 19 1 4 3 -2 6 -13 5 -11 0 -14 -3 -6 -6z"/>
<path d="M4375 3320 c-13 -5 -14 -9 -5 -9 8 0 24 4 35 9 13 5 14 9 5 9 -8 0
-24 -4 -35 -9z"/>
<path d="M2488 3313 c7 -3 16 -2 19 1 4 3 -2 6 -13 5 -11 0 -14 -3 -6 -6z"/>
<path d="M2635 3310 c-13 -5 -14 -9 -5 -9 8 0 24 4 35 9 13 5 14 9 5 9 -8 0
-24 -4 -35 -9z"/>
<path d="M4168 3313 c7 -3 16 -2 19 1 4 3 -2 6 -13 5 -11 0 -14 -3 -6 -6z"/>
<path d="M5522 3300 c0 -14 2 -19 5 -12 2 6 2 18 0 25 -3 6 -5 1 -5 -13z"/>
<path d="M2425 3300 c-13 -5 -14 -9 -5 -9 8 0 24 4 35 9 13 5 14 9 5 9 -8 0
-24 -4 -35 -9z"/>
<path d="M4128 3303 c7 -3 16 -2 19 1 4 3 -2 6 -13 5 -11 0 -14 -3 -6 -6z"/>
<path d="M4305 3300 c-13 -5 -14 -9 -5 -9 8 0 24 4 35 9 13 5 14 9 5 9 -8 0
-24 -4 -35 -9z"/>
<path d="M5705 3300 c-13 -5 -14 -9 -5 -9 8 0 24 4 35 9 13 5 14 9 5 9 -8 0
-24 -4 -35 -9z"/>
<path d="M2588 3293 c7 -3 16 -2 19 1 4 3 -2 6 -13 5 -11 0 -14 -3 -6 -6z"/>
<path d="M3960 3287 c0 -8 -7 -23 -16 -31 -13 -14 -13 -16 -1 -16 15 0 33 47
22 58 -3 3 -5 -2 -5 -11z"/>
<path d="M2355 3280 c-13 -5 -14 -9 -5 -9 8 0 24 4 35 9 13 5 14 9 5 9 -8 0
-24 -4 -35 -9z"/>
<path d="M2525 3280 c-13 -5 -14 -9 -5 -9 8 0 24 4 35 9 13 5 14 9 5 9 -8 0
-24 -4 -35 -9z"/>
<path d="M4235 3280 c-13 -5 -14 -9 -5 -9 8 0 24 4 35 9 13 5 14 9 5 9 -8 0
-24 -4 -35 -9z"/>
<path d="M2285 3260 c-13 -5 -14 -9 -5 -9 8 0 24 4 35 9 13 5 14 9 5 9 -8 0
-24 -4 -35 -9z"/>
<path d="M2478 3263 c7 -3 16 -2 19 1 4 3 -2 6 -13 5 -11 0 -14 -3 -6 -6z"/>
<path d="M4165 3260 c-13 -5 -14 -9 -5 -9 8 0 24 4 35 9 13 5 14 9 5 9 -8 0
-24 -4 -35 -9z"/>
<path d="M5511 3254 c0 -11 3 -14 6 -6 3 7 2 16 -1 19 -3 4 -6 -2 -5 -13z"/>
<path d="M2395 3245 c-39 -14 -40 -14 -5 -8 41 7 82 22 60 22 -8 0 -33 -7 -55
-14z"/>
<path d="M2238 3243 c7 -3 16 -2 19 1 4 3 -2 6 -13 5 -11 0 -14 -3 -6 -6z"/>
<path d="M4118 3243 c7 -3 16 -2 19 1 4 3 -2 6 -13 5 -11 0 -14 -3 -6 -6z"/>
<path d="M3898 3233 c7 -3 16 -2 19 1 4 3 -2 6 -13 5 -11 0 -14 -3 -6 -6z"/>
<path d="M2168 3223 c7 -3 16 -2 19 1 4 3 -2 6 -13 5 -11 0 -14 -3 -6 -6z"/>
<path d="M2328 3223 c7 -3 16 -2 19 1 4 3 -2 6 -13 5 -11 0 -14 -3 -6 -6z"/>
<path d="M3815 3215 c-39 -14 -40 -14 -5 -8 41 7 82 22 60 22 -8 0 -33 -7 -55
-14z"/>
<path d="M4048 3223 c7 -3 16 -2 19 1 4 3 -2 6 -13 5 -11 0 -14 -3 -6 -6z"/>
<path d="M5501 3218 c0 -9 -13 -21 -28 -27 l-28 -11 30 6 c37 7 38 8 32 31 -4
15 -5 15 -6 1z"/>
<path d="M2105 3210 c-13 -5 -14 -9 -5 -9 8 0 24 4 35 9 13 5 14 9 5 9 -8 0
-24 -4 -35 -9z"/>
<path d="M2265 3210 c-13 -5 -14 -9 -5 -9 8 0 24 4 35 9 13 5 14 9 5 9 -8 0
-24 -4 -35 -9z"/>
<path d="M3985 3210 c-13 -5 -14 -9 -5 -9 8 0 24 4 35 9 13 5 14 9 5 9 -8 0
-24 -4 -35 -9z"/>
<path d="M2035 3190 c-13 -5 -14 -9 -5 -9 8 0 24 4 35 9 13 5 14 9 5 9 -8 0
-24 -4 -35 -9z"/>
<path d="M2218 3193 c7 -3 16 -2 19 1 4 3 -2 6 -13 5 -11 0 -14 -3 -6 -6z"/>
<path d="M3915 3190 c-13 -5 -14 -9 -5 -9 8 0 24 4 35 9 13 5 14 9 5 9 -8 0
-24 -4 -35 -9z"/>
<path d="M2155 3180 c-13 -5 -14 -9 -5 -9 8 0 24 4 35 9 13 5 14 9 5 9 -8 0
-24 -4 -35 -9z"/>
<path d="M1988 3173 c7 -3 16 -2 19 1 4 3 -2 6 -13 5 -11 0 -14 -3 -6 -6z"/>
<path d="M3845 3170 c-13 -5 -14 -9 -5 -9 8 0 24 4 35 9 13 5 14 9 5 9 -8 0
-24 -4 -35 -9z"/>
<path d="M5418 3173 c7 -3 16 -2 19 1 4 3 -2 6 -13 5 -11 0 -14 -3 -6 -6z"/>
<path d="M2108 3163 c7 -3 16 -2 19 1 4 3 -2 6 -13 5 -11 0 -14 -3 -6 -6z"/>
<path d="M5355 3160 c-13 -5 -14 -9 -5 -9 8 0 24 4 35 9 13 5 14 9 5 9 -8 0
-24 -4 -35 -9z"/>
<path d="M1918 3153 c7 -3 16 -2 19 1 4 3 -2 6 -13 5 -11 0 -14 -3 -6 -6z"/>
<path d="M2068 3153 c7 -3 16 -2 19 1 4 3 -2 6 -13 5 -11 0 -14 -3 -6 -6z"/>
<path d="M3775 3150 c-13 -5 -14 -9 -5 -9 8 0 24 4 35 9 13 5 14 9 5 9 -8 0
-24 -4 -35 -9z"/>
<path d="M1855 3140 c-13 -5 -14 -9 -5 -9 8 0 24 4 35 9 13 5 14 9 5 9 -8 0
-24 -4 -35 -9z"/>
<path d="M2005 3140 c-13 -5 -14 -9 -5 -9 8 0 24 4 35 9 13 5 14 9 5 9 -8 0
-24 -4 -35 -9z"/>
<path d="M5285 3140 c-13 -5 -14 -9 -5 -9 8 0 24 4 35 9 13 5 14 9 5 9 -8 0
-24 -4 -35 -9z"/>
<path d="M3705 3130 c-13 -5 -14 -9 -5 -9 8 0 24 4 35 9 13 5 14 9 5 9 -8 0
-24 -4 -35 -9z"/>
<path d="M5215 3120 c-13 -5 -14 -9 -5 -9 8 0 24 4 35 9 13 5 14 9 5 9 -8 0
-24 -4 -35 -9z"/>
<path d="M5145 3100 c-13 -5 -14 -9 -5 -9 8 0 24 4 35 9 13 5 14 9 5 9 -8 0
-24 -4 -35 -9z"/>
<path d="M5098 3083 c7 -3 16 -2 19 1 4 3 -2 6 -13 5 -11 0 -14 -3 -6 -6z"/>
<path d="M5035 3070 c-13 -5 -14 -9 -5 -9 8 0 24 4 35 9 13 5 14 9 5 9 -8 0
-24 -4 -35 -9z"/>
<path d="M4965 3050 c-13 -5 -14 -9 -5 -9 8 0 24 4 35 9 13 5 14 9 5 9 -8 0
-24 -4 -35 -9z"/>
<path d="M4895 3030 c-13 -5 -14 -9 -5 -9 8 0 24 4 35 9 13 5 14 9 5 9 -8 0
-24 -4 -35 -9z"/>
<path d="M4848 3013 c7 -3 16 -2 19 1 4 3 -2 6 -13 5 -11 0 -14 -3 -6 -6z"/>
<path d="M4778 2993 c7 -3 16 -2 19 1 4 3 -2 6 -13 5 -11 0 -14 -3 -6 -6z"/>
<path d="M4715 2980 c-13 -5 -14 -9 -5 -9 8 0 24 4 35 9 13 5 14 9 5 9 -8 0
-24 -4 -35 -9z"/>
<path d="M4645 2960 c-13 -5 -14 -9 -5 -9 8 0 24 4 35 9 13 5 14 9 5 9 -8 0
-24 -4 -35 -9z"/>
<path d="M4575 2940 c-13 -5 -14 -9 -5 -9 8 0 24 4 35 9 13 5 14 9 5 9 -8 0
-24 -4 -35 -9z"/>
<path d="M4528 2923 c7 -3 16 -2 19 1 4 3 -2 6 -13 5 -11 0 -14 -3 -6 -6z"/>
<path d="M4458 2903 c7 -3 16 -2 19 1 4 3 -2 6 -13 5 -11 0 -14 -3 -6 -6z"/>
<path d="M4395 2890 c-13 -5 -14 -9 -5 -9 8 0 24 4 35 9 13 5 14 9 5 9 -8 0
-24 -4 -35 -9z"/>
<path d="M4325 2870 c-13 -5 -14 -9 -5 -9 8 0 24 4 35 9 13 5 14 9 5 9 -8 0
-24 -4 -35 -9z"/>
<path d="M4255 2850 c-13 -5 -14 -9 -5 -9 8 0 24 4 35 9 13 5 14 9 5 9 -8 0
-24 -4 -35 -9z"/>
<path d="M4208 2833 c7 -3 16 -2 19 1 4 3 -2 6 -13 5 -11 0 -14 -3 -6 -6z"/>
<path d="M4138 2813 c7 -3 16 -2 19 1 4 3 -2 6 -13 5 -11 0 -14 -3 -6 -6z"/>
<path d="M4075 2800 c-13 -5 -14 -9 -5 -9 8 0 24 4 35 9 13 5 14 9 5 9 -8 0
-24 -4 -35 -9z"/>
<path d="M4005 2780 c-13 -5 -14 -9 -5 -9 8 0 24 4 35 9 13 5 14 9 5 9 -8 0
-24 -4 -35 -9z"/>
<path d="M3935 2760 c-13 -5 -14 -9 -5 -9 8 0 24 4 35 9 13 5 14 9 5 9 -8 0
-24 -4 -35 -9z"/>
<path d="M3888 2743 c7 -3 16 -2 19 1 4 3 -2 6 -13 5 -11 0 -14 -3 -6 -6z"/>
<path d="M3818 2723 c7 -3 16 -2 19 1 4 3 -2 6 -13 5 -11 0 -14 -3 -6 -6z"/>
<path d="M3212 2695 c0 -16 2 -22 5 -12 2 9 2 23 0 30 -3 6 -5 -1 -5 -18z"/>
<path d="M3755 2710 c-13 -5 -14 -9 -5 -9 8 0 24 4 35 9 13 5 14 9 5 9 -8 0
-24 -4 -35 -9z"/>
<path d="M3685 2690 c-13 -5 -14 -9 -5 -9 8 0 24 4 35 9 13 5 14 9 5 9 -8 0
-24 -4 -35 -9z"/>
<path d="M3615 2670 c-13 -5 -14 -9 -5 -9 8 0 24 4 35 9 13 5 14 9 5 9 -8 0
-24 -4 -35 -9z"/>
<path d="M3568 2653 c7 -3 16 -2 19 1 4 3 -2 6 -13 5 -11 0 -14 -3 -6 -6z"/>
<path d="M3202 2625 c0 -16 2 -22 5 -12 2 9 2 23 0 30 -3 6 -5 -1 -5 -18z"/>
<path d="M3505 2640 c-13 -5 -14 -9 -5 -9 8 0 24 4 35 9 13 5 14 9 5 9 -8 0
-24 -4 -35 -9z"/>
<path d="M3435 2620 c-13 -5 -14 -9 -5 -9 8 0 24 4 35 9 13 5 14 9 5 9 -8 0
-24 -4 -35 -9z"/>
<path d="M3191 2573 c0 -13 -11 -25 -28 -32 l-28 -11 30 6 c37 7 38 7 32 36
-4 22 -4 22 -6 1z"/>
<path d="M3085 2520 c-13 -5 -14 -9 -5 -9 8 0 24 4 35 9 13 5 14 9 5 9 -8 0
-24 -4 -35 -9z"/>
<path d="M2503 2480 c0 -25 2 -35 4 -22 2 12 2 32 0 45 -2 12 -4 2 -4 -23z"/>
<path d="M3015 2500 c-13 -5 -14 -9 -5 -9 8 0 24 4 35 9 13 5 14 9 5 9 -8 0
-24 -4 -35 -9z"/>
<path d="M2945 2480 c-13 -5 -14 -9 -5 -9 8 0 24 4 35 9 13 5 14 9 5 9 -8 0
-24 -4 -35 -9z"/>
<path d="M2875 2460 c-13 -5 -14 -9 -5 -9 8 0 24 4 35 9 13 5 14 9 5 9 -8 0
-24 -4 -35 -9z"/>
<path d="M2805 2440 c-13 -5 -14 -9 -5 -9 8 0 24 4 35 9 13 5 14 9 5 9 -8 0
-24 -4 -35 -9z"/>
<path d="M2735 2420 c-13 -5 -14 -9 -5 -9 8 0 24 4 35 9 13 5 14 9 5 9 -8 0
-24 -4 -35 -9z"/>
<path d="M2491 2387 c-1 -18 -8 -31 -23 -37 -13 -5 -16 -9 -8 -9 28 -1 42 15
37 45 l-4 29 -2 -28z"/>
<path d="M2395 2330 c-13 -5 -14 -9 -5 -9 8 0 24 4 35 9 13 5 14 9 5 9 -8 0
-24 -4 -35 -9z"/>
<path d="M2325 2310 c-13 -5 -14 -9 -5 -9 8 0 24 4 35 9 13 5 14 9 5 9 -8 0
-24 -4 -35 -9z"/>
<path d="M2255 2290 c-13 -5 -14 -9 -5 -9 8 0 24 4 35 9 13 5 14 9 5 9 -8 0
-24 -4 -35 -9z"/>
</g>
</svg>
